<svg width="60" height="62" viewBox="0 0 60 62" fill="none" xmlns="http://www.w3.org/2000/svg">
<path d="M52.9998 28.5855V27.4909C52.9998 24.5205 51.8409 21.6717 49.778 19.5713C47.7151 17.4709 44.9173 16.2909 41.9999 16.2909C39.0826 16.2909 36.2847 17.4709 34.2218 19.5713C32.1589 21.6717 31 24.5205 31 27.4909V31.5636H27C26.7348 31.5636 26.4805 31.6709 26.2929 31.8619C26.1054 32.0528 26 32.3118 26 32.5818V36.6545C26 36.9246 26.1054 37.1836 26.2929 37.3745C26.4805 37.5655 26.7348 37.6727 27 37.6727H27.1L28.047 46.8364H24.0001V3.05455C24.0001 2.24443 23.684 1.46749 23.1214 0.894656C22.5588 0.321817 21.7957 0 21.0001 0C20.2044 0 19.4414 0.321817 18.8788 0.894656C18.3162 1.46749 18.0001 2.24443 18.0001 3.05455V46.8364H8.00019C7.46995 46.837 6.96161 47.0518 6.58668 47.4335C6.21174 47.8153 6.00083 48.3328 6.0002 48.8727V51.8019L4.03009 59.8258C3.99324 59.9759 3.99048 60.1326 4.022 60.284C4.05353 60.4353 4.11852 60.5774 4.21204 60.6993C4.30556 60.8213 4.42515 60.9199 4.56172 60.9878C4.69829 61.0556 4.84825 61.0909 5.00021 61.0909H51.9998C52.265 61.0909 52.5194 60.9836 52.7069 60.7927C52.8945 60.6017 52.9998 60.3428 52.9998 60.0727V56.0535L54.4113 42.4007C54.8948 42.1307 55.2976 41.7327 55.5772 41.2488C55.8569 40.7649 56.0029 40.213 55.9998 39.6516V32.3273C55.9988 31.4474 55.6999 30.5948 55.1534 29.9131C54.6069 29.2315 53.8463 28.7626 52.9998 28.5855ZM33 27.4909C33 26.2875 33.2328 25.0959 33.6851 23.9841C34.1374 22.8724 34.8003 21.8622 35.636 21.0112C36.4717 20.1603 37.4639 19.4853 38.5558 19.0248C39.6477 18.5643 40.818 18.3273 41.9999 18.3273C43.1818 18.3273 44.3521 18.5643 45.444 19.0248C46.536 19.4853 47.5281 20.1603 48.3638 21.0112C49.1995 21.8622 49.8625 22.8724 50.3148 23.9841C50.7671 25.0959 50.9998 26.2875 50.9998 27.4909V28.5091H41.7499C40.8857 28.5101 40.0483 28.8145 39.3789 29.3709C38.7095 29.9273 38.2489 30.7018 38.0749 31.5636H33V27.4909ZM28 33.6H37.9999V35.6364H28V33.6ZM29.1108 37.6727H37.9999V39.6531C38.0017 40.0687 38.084 40.4798 38.2422 40.8629C38.4004 41.2459 38.6314 41.5934 38.9219 41.8853C39.2005 42.1686 39.5319 42.3923 39.8967 42.5431C40.2615 42.6939 40.6522 42.7688 41.0459 42.7635C41.768 42.7504 42.4614 42.4737 42.9999 41.9838C43.5494 42.4859 44.2616 42.7635 44.9999 42.7635C45.7382 42.7635 46.4504 42.4859 46.9999 41.9838C47.5492 42.4857 48.2612 42.7633 48.9992 42.7635C49.7372 42.7637 50.4493 42.4864 50.9988 41.9849C51.3867 42.3398 51.8596 42.5845 52.3698 42.6943L51.0998 54.9818H36.7807L36 51.8019V48.8727C35.9993 48.3328 35.7884 47.8153 35.4135 47.4335C35.0386 47.0518 34.5302 46.837 34 46.8364H30.0578L29.1108 37.6727ZM20.0001 3.05455C20.0001 2.78451 20.1054 2.52553 20.293 2.33458C20.4805 2.14364 20.7349 2.03636 21.0001 2.03636C21.2653 2.03636 21.5196 2.14364 21.7072 2.33458C21.8947 2.52553 22.0001 2.78451 22.0001 3.05455V46.8364H20.0001V3.05455ZM8.00019 48.8727H34V50.9091H8.00019V48.8727ZM10.2809 59.0545L11.7809 52.9455H13.7194L12.2194 59.0545H10.2809ZM7.78094 52.9455H9.71942L8.21943 59.0545H6.28095L7.78094 52.9455ZM15.7809 52.9455H17.8674L17.1174 59.0545H14.2809L15.7809 52.9455ZM19.1328 59.0545L19.8828 52.9455H22.1173L22.8673 59.0545H19.1328ZM24.8828 59.0545L24.1328 52.9455H26.2193L27.7193 59.0545H24.8828ZM29.7808 59.0545L28.2808 52.9455H30.2193L31.7192 59.0545H29.7808ZM33.7807 59.0545L32.2807 52.9455H34.2192L35.7192 59.0545H33.7807ZM50.9998 59.0545H37.7807L37.2807 57.0182H50.9998V59.0545ZM53.9998 36.6545V39.6516C54.0045 39.9198 53.909 40.1799 53.7327 40.3793C53.5564 40.5787 53.3123 40.7026 53.0498 40.726C52.9145 40.7329 52.7791 40.7117 52.6521 40.6637C52.525 40.6157 52.4088 40.5419 52.3106 40.4468C52.2124 40.3517 52.1342 40.2373 52.0808 40.1105C52.0274 39.9836 51.9998 39.8471 51.9998 39.7091V35.6364H49.9999V39.7091C49.9999 39.9791 49.8945 40.2381 49.707 40.4291C49.5194 40.62 49.2651 40.7273 48.9999 40.7273C48.7346 40.7273 48.4803 40.62 48.2928 40.4291C48.1052 40.2381 47.9999 39.9791 47.9999 39.7091V35.6364H45.9999V39.7091C45.9999 39.9791 45.8945 40.2381 45.707 40.4291C45.5195 40.62 45.2651 40.7273 44.9999 40.7273C44.7347 40.7273 44.4803 40.62 44.2928 40.4291C44.1053 40.2381 43.9999 39.9791 43.9999 39.7091V35.6364H41.9999V39.7091C42.0002 39.9765 41.8971 40.2332 41.7129 40.4237C41.5287 40.6143 41.2782 40.7233 41.0157 40.7273H41.0019C40.7473 40.7247 40.504 40.6194 40.3254 40.4345C40.2234 40.3325 40.1422 40.211 40.0864 40.0769C40.0306 39.9428 40.0014 39.7988 40.0004 39.6532V32.3273C40.0009 31.8549 40.1855 31.4019 40.5135 31.0679C40.8416 30.7338 41.2864 30.546 41.7504 30.5455H52.2503C52.7143 30.546 53.1591 30.7338 53.4872 31.0679C53.8153 31.4019 53.9998 31.8549 54.0003 32.3273L53.9998 36.6545Z" fill="#757575"/>
<path d="M10.0516 32.9039C10.118 33.1066 10.2453 33.2829 10.4156 33.4078C10.5858 33.5327 10.7903 33.5999 11.0002 33.5999C11.21 33.5999 11.4146 33.5327 11.5848 33.4078C11.7551 33.2829 11.8824 33.1066 11.9488 32.9039C12.212 32.1064 12.653 31.3818 13.2372 30.7869C13.8215 30.1921 14.5332 29.7431 15.3164 29.4751C15.5156 29.4076 15.6888 29.278 15.8115 29.1046C15.9343 28.9312 16.0004 28.7229 16.0004 28.5092C16.0004 28.2954 15.9343 28.0871 15.8115 27.9137C15.6888 27.7403 15.5156 27.6107 15.3164 27.5432C14.5332 27.2752 13.8215 26.8262 13.2372 26.2314C12.653 25.6365 12.212 24.9119 11.9488 24.1144C11.8824 23.9117 11.7551 23.7354 11.5848 23.6105C11.4146 23.4856 11.21 23.4184 11.0002 23.4184C10.7903 23.4184 10.5858 23.4856 10.4156 23.6105C10.2453 23.7354 10.118 23.9117 10.0516 24.1144C9.7884 24.9119 9.3474 25.6365 8.76313 26.2314C8.17887 26.8262 7.46721 27.2752 6.68397 27.5432C6.48481 27.6107 6.31158 27.7403 6.18882 27.9137C6.06606 28.0871 6 28.2954 6 28.5092C6 28.7229 6.06606 28.9312 6.18882 29.1046C6.31158 29.278 6.48481 29.4076 6.68397 29.4751C7.46721 29.7431 8.17887 30.1921 8.76313 30.7869C9.3474 31.3818 9.7884 32.1064 10.0516 32.9039ZM11.0002 26.6722C11.4925 27.3862 12.1029 28.0078 12.8042 28.5092C12.1029 29.0105 11.4925 29.6321 11.0002 30.3461C10.5078 29.6321 9.89743 29.0105 9.1962 28.5092C9.89743 28.0078 10.5078 27.3862 11.0002 26.6722Z" fill="#757575"/>
<path d="M59.316 15.3249C58.5328 15.057 57.8211 14.608 57.2369 14.0132C56.6526 13.4183 56.2116 12.6937 55.9484 11.8962C55.882 11.6935 55.7547 11.5172 55.5844 11.3923C55.4142 11.2674 55.2097 11.2002 54.9998 11.2002C54.79 11.2002 54.5854 11.2674 54.4152 11.3923C54.2449 11.5172 54.1176 11.6935 54.0512 11.8962C53.788 12.6937 53.347 13.4183 52.7628 14.0132C52.1785 14.608 51.4668 15.057 50.6836 15.3249C50.4844 15.3925 50.3112 15.5221 50.1885 15.6955C50.0657 15.8689 49.9996 16.0772 49.9996 16.2909C49.9996 16.5047 50.0657 16.713 50.1885 16.8864C50.3112 17.0598 50.4844 17.1894 50.6836 17.2569C51.4668 17.5249 52.1785 17.9739 52.7628 18.5687C53.347 19.1636 53.788 19.8882 54.0512 20.6857C54.1176 20.8884 54.2449 21.0647 54.4152 21.1896C54.5854 21.3145 54.79 21.3817 54.9998 21.3817C55.2097 21.3817 55.4142 21.3145 55.5844 21.1896C55.7547 21.0647 55.882 20.8884 55.9484 20.6857C56.2116 19.8882 56.6526 19.1636 57.2369 18.5687C57.8211 17.9739 58.5328 17.5249 59.316 17.2569C59.5152 17.1894 59.6884 17.0598 59.8112 16.8864C59.9339 16.713 60 16.5047 60 16.2909C60 16.0772 59.9339 15.8689 59.8112 15.6955C59.6884 15.5221 59.5152 15.3925 59.316 15.3249ZM54.9998 18.1279C54.5075 17.4139 53.8971 16.7923 53.1958 16.2909C53.8971 15.7896 54.5075 15.168 54.9998 14.454C55.4922 15.168 56.1026 15.7896 56.8038 16.2909C56.1026 16.7923 55.4922 17.4139 54.9998 18.1279Z" fill="#757575"/>
<path d="M5.00018 45.8182C5.21005 45.8182 5.4146 45.7509 5.58485 45.626C5.7551 45.5011 5.88243 45.3247 5.9488 45.122C6.21196 44.3245 6.65296 43.6 7.23723 43.0051C7.8215 42.4102 8.53315 41.9612 9.3164 41.6933C9.51556 41.6257 9.68879 41.4961 9.81155 41.3227C9.93431 41.1493 10.0004 40.941 10.0004 40.7273C10.0004 40.5136 9.93431 40.3052 9.81155 40.1319C9.68879 39.9585 9.51556 39.8288 9.3164 39.7613C8.53315 39.4934 7.8215 39.0444 7.23723 38.4495C6.65296 37.8546 6.21196 37.13 5.9488 36.3326C5.8824 36.1299 5.75506 35.9536 5.58481 35.8287C5.41456 35.7038 5.21003 35.6365 5.00018 35.6365C4.79033 35.6365 4.5858 35.7038 4.41555 35.8287C4.2453 35.9536 4.11796 36.1299 4.05157 36.3326C3.7884 37.13 3.3474 37.8546 2.76313 38.4495C2.17887 39.0444 1.46721 39.4934 0.683967 39.7613C0.484808 39.8288 0.311577 39.9585 0.188818 40.1319C0.0660596 40.3052 0 40.5136 0 40.7273C0 40.941 0.0660596 41.1493 0.188818 41.3227C0.311577 41.4961 0.484808 41.6257 0.683967 41.6933C1.46721 41.9612 2.17887 42.4102 2.76313 43.0051C3.3474 43.6 3.7884 44.3245 4.05157 45.122C4.11794 45.3247 4.24526 45.5011 4.41552 45.626C4.58577 45.7509 4.79031 45.8182 5.00018 45.8182ZM5.00018 38.8904C5.49254 39.6044 6.10293 40.2259 6.80417 40.7273C6.10293 41.2287 5.49254 41.8502 5.00018 42.5642C4.50783 41.8502 3.89743 41.2287 3.1962 40.7273C3.89743 40.2259 4.50783 39.6044 5.00018 38.8904Z" fill="#757575"/>
</svg>
