<svg width="195" height="123" viewBox="0 0 195 123" fill="none" xmlns="http://www.w3.org/2000/svg">
<path d="M104 75.0001C86.7457 53.1298 126 18.0001 193 27.0001" stroke="white" stroke-width="1.5" stroke-linecap="round" stroke-linejoin="round"/>
<path d="M12.8921 84.1002C14.8221 84.1002 16.2971 84.6102 17.3171 85.6302C18.3471 86.6402 18.8621 88.1052 18.8621 90.0252C18.8621 91.3352 18.6421 92.5302 18.2021 93.6102C17.7621 94.6802 17.1521 95.5252 16.3721 96.1452C15.5921 96.7652 14.7121 97.0752 13.7321 97.0752C13.2221 97.0752 12.7671 97.0252 12.3671 96.9252C11.9771 96.8252 11.6071 96.6852 11.2571 96.5052C10.9071 96.3152 10.4521 96.0402 9.89207 95.6802C9.64207 96.1902 9.28207 96.5752 8.81207 96.8352C8.34207 97.0952 7.78207 97.2252 7.13207 97.2252C6.39207 97.2252 5.84707 97.0652 5.49707 96.7452C5.15707 96.4152 4.98707 95.9652 4.98707 95.3952C4.98707 94.7852 5.19707 94.2902 5.61707 93.9102C6.03707 93.5202 6.60207 93.3252 7.31207 93.3252C7.71207 93.3252 8.13707 93.3902 8.58707 93.5202C8.71707 92.2902 8.88707 91.2852 9.09707 90.5052C9.31707 89.7152 9.62707 88.9152 10.0271 88.1052C10.1671 87.8152 10.3321 87.6052 10.5221 87.4752C10.7121 87.3452 10.9471 87.2802 11.2271 87.2802C11.4971 87.2802 11.7071 87.3352 11.8571 87.4452C12.0071 87.5552 12.0821 87.7002 12.0821 87.8802C12.0821 88.0102 12.0471 88.1402 11.9771 88.2702C11.7471 88.6902 11.5221 89.2502 11.3021 89.9502C11.0921 90.6502 10.9271 91.3302 10.8071 91.9902L10.7171 92.5002C10.5971 93.2102 10.4821 93.7952 10.3721 94.2552C10.9021 94.5452 11.4271 94.7752 11.9471 94.9452C12.4771 95.1052 12.9521 95.1852 13.3721 95.1852C14.0321 95.1852 14.6071 94.9702 15.0971 94.5402C15.5971 94.1102 15.9821 93.5052 16.2521 92.7252C16.5221 91.9452 16.6571 91.0352 16.6571 89.9952C16.6571 88.5852 16.3421 87.5352 15.7121 86.8452C15.0821 86.1552 14.1271 85.8102 12.8471 85.8102C12.0471 85.8102 11.2421 85.9302 10.4321 86.1702C9.63207 86.4102 8.89707 86.7452 8.22707 87.1752C8.07707 87.2652 7.94207 87.3102 7.82207 87.3102C7.65207 87.3102 7.51207 87.2452 7.40207 87.1152C7.30207 86.9752 7.25207 86.7902 7.25207 86.5602C7.25207 86.3202 7.29207 86.1252 7.37207 85.9752C7.45207 85.8252 7.58707 85.6802 7.77707 85.5402C8.41707 85.1002 9.19707 84.7502 10.1171 84.4902C11.0471 84.2302 11.9721 84.1002 12.8921 84.1002ZM7.22207 95.8452C7.52207 95.8452 7.76207 95.7752 7.94207 95.6352C8.13207 95.4852 8.27707 95.2402 8.37707 94.9002C7.97707 94.7502 7.62707 94.6752 7.32707 94.6752C7.07707 94.6752 6.88207 94.7402 6.74207 94.8702C6.61207 95.0002 6.54707 95.1502 6.54707 95.3202C6.54707 95.6702 6.77207 95.8452 7.22207 95.8452ZM21.7436 89.0202C21.3236 89.0202 21.0086 88.9252 20.7986 88.7352C20.5886 88.5352 20.4836 88.2602 20.4836 87.9102C20.4836 87.5602 20.6186 87.2702 20.8886 87.0402C21.1686 86.8002 21.5136 86.6802 21.9236 86.6802C22.2936 86.6802 22.5936 86.7702 22.8236 86.9502C23.0536 87.1302 23.1686 87.3852 23.1686 87.7152C23.1686 88.1152 23.0386 88.4352 22.7786 88.6752C22.5186 88.9052 22.1736 89.0202 21.7436 89.0202ZM21.6236 97.0752C20.9736 97.0752 20.4986 96.8452 20.1986 96.3852C19.9086 95.9252 19.7636 95.3152 19.7636 94.5552C19.7636 94.1052 19.8186 93.5302 19.9286 92.8302C20.0486 92.1202 20.1986 91.4602 20.3786 90.8502C20.4686 90.5302 20.5886 90.3102 20.7386 90.1902C20.8886 90.0702 21.1286 90.0102 21.4586 90.0102C21.9686 90.0102 22.2236 90.1802 22.2236 90.5202C22.2236 90.7702 22.1286 91.3502 21.9386 92.2602C21.6986 93.3602 21.5786 94.1052 21.5786 94.4952C21.5786 94.7952 21.6186 95.0252 21.6986 95.1852C21.7786 95.3452 21.9136 95.4252 22.1036 95.4252C22.2836 95.4252 22.5086 95.3002 22.7786 95.0502C23.0486 94.8002 23.4086 94.4052 23.8586 93.8652C23.9786 93.7252 24.1136 93.6552 24.2636 93.6552C24.3936 93.6552 24.4936 93.7152 24.5636 93.8352C24.6436 93.9552 24.6836 94.1202 24.6836 94.3302C24.6836 94.7302 24.5886 95.0402 24.3986 95.2602C23.4086 96.4702 22.4836 97.0752 21.6236 97.0752ZM30.197 93.6852C30.327 93.6852 30.427 93.7452 30.497 93.8652C30.577 93.9852 30.617 94.1452 30.617 94.3452C30.617 94.7752 30.477 95.0702 30.197 95.2302C29.057 95.8902 28.047 96.5202 27.167 97.1202C27.237 97.4002 27.272 97.7302 27.272 98.1102C27.272 99.0302 27.097 99.9302 26.747 100.81C26.407 101.7 25.947 102.425 25.367 102.985C24.797 103.545 24.192 103.825 23.552 103.825C23.002 103.825 22.577 103.67 22.277 103.36C21.977 103.06 21.827 102.63 21.827 102.07C21.827 101.22 22.082 100.395 22.592 99.5952C23.102 98.7952 23.997 97.8952 25.277 96.8952C25.187 96.7652 25.062 96.6502 24.902 96.5502C24.752 96.4502 24.547 96.3402 24.287 96.2202C23.927 96.0602 23.667 95.8852 23.507 95.6952C23.347 95.5052 23.267 95.2952 23.267 95.0652C23.267 94.7252 23.367 94.4752 23.567 94.3152C23.667 94.2352 23.832 94.1552 24.062 94.0752C24.302 93.9852 24.447 93.9302 24.497 93.9102C24.977 93.7402 25.377 93.5802 25.697 93.4302C26.027 93.2702 26.312 93.0602 26.552 92.8002C26.802 92.5402 26.927 92.2252 26.927 91.8552C26.927 91.6452 26.867 91.4852 26.747 91.3752C26.627 91.2652 26.427 91.2102 26.147 91.2102C25.897 91.2102 25.682 91.2452 25.502 91.3152C25.332 91.3752 25.137 91.4702 24.917 91.6002C24.737 91.6902 24.592 91.7602 24.482 91.8102C24.382 91.8502 24.267 91.8702 24.137 91.8702C23.747 91.8702 23.552 91.6802 23.552 91.3002C23.552 91.0502 23.662 90.8152 23.882 90.5952C24.112 90.3752 24.437 90.2002 24.857 90.0702C25.277 89.9402 25.767 89.8752 26.327 89.8752C27.037 89.8752 27.562 90.0452 27.902 90.3852C28.252 90.7252 28.427 91.1702 28.427 91.7202C28.427 92.5602 28.107 93.2452 27.467 93.7752C26.837 94.3052 26.022 94.7152 25.022 95.0052C25.722 95.2352 26.247 95.5452 26.597 95.9352C27.487 95.3052 28.572 94.5952 29.852 93.8052C29.982 93.7252 30.097 93.6852 30.197 93.6852ZM25.577 98.3202C24.057 99.6002 23.297 100.765 23.297 101.815C23.297 102.215 23.437 102.415 23.717 102.415C23.957 102.415 24.222 102.19 24.512 101.74C24.812 101.3 25.062 100.765 25.262 100.135C25.472 99.5052 25.577 98.9502 25.577 98.4702V98.3202ZM37.4545 93.6552C37.5845 93.6552 37.6845 93.7152 37.7545 93.8352C37.8345 93.9552 37.8745 94.1202 37.8745 94.3302C37.8745 94.7302 37.7795 95.0402 37.5895 95.2602C37.1295 95.7902 36.6545 96.2252 36.1645 96.5652C35.6845 96.9052 35.1345 97.0752 34.5145 97.0752C33.9945 97.0752 33.6295 96.9152 33.4195 96.5952C33.2095 96.2752 33.1045 95.7952 33.1045 95.1552C33.1045 94.8852 33.1295 94.5602 33.1795 94.1802C32.2995 94.1802 31.6895 94.1702 31.3495 94.1502C31.3295 94.4302 31.3195 94.6252 31.3195 94.7352V95.0502C31.3095 95.6702 31.2945 96.1052 31.2745 96.3552C31.2545 96.6052 31.1945 96.7902 31.0945 96.9102C30.9945 97.0202 30.8295 97.0752 30.5995 97.0752C30.2195 97.0752 29.9495 96.8752 29.7895 96.4752C29.6395 96.0752 29.5645 95.4352 29.5645 94.5552C29.5645 93.2552 29.7495 92.0202 30.1195 90.8502C30.2095 90.5602 30.3545 90.3502 30.5545 90.2202C30.7545 90.0802 31.0445 90.0102 31.4245 90.0102C31.6245 90.0102 31.7645 90.0352 31.8445 90.0852C31.9245 90.1352 31.9645 90.2302 31.9645 90.3702C31.9645 90.5302 31.8895 90.8902 31.7395 91.4502C31.6595 91.7802 31.5845 92.1802 31.5145 92.6502H33.4345C33.5345 92.1802 33.6795 91.5802 33.8695 90.8502C33.9495 90.5502 34.0695 90.3352 34.2295 90.2052C34.3995 90.0752 34.6495 90.0102 34.9795 90.0102C35.2095 90.0102 35.3695 90.0402 35.4595 90.1002C35.5495 90.1502 35.5945 90.2502 35.5945 90.4002C35.5945 90.6502 35.4695 91.3352 35.2195 92.4552C34.9395 93.7352 34.7995 94.5252 34.7995 94.8252C34.7995 95.0152 34.8395 95.1652 34.9195 95.2752C34.9995 95.3752 35.1045 95.4252 35.2345 95.4252C35.4345 95.4252 35.6695 95.3052 35.9395 95.0652C36.2195 94.8152 36.5895 94.4152 37.0495 93.8652C37.1695 93.7252 37.3045 93.6552 37.4545 93.6552ZM38.4986 97.0752C37.8786 97.0752 37.3836 96.8502 37.0136 96.4002C36.6436 95.9502 36.4586 95.3602 36.4586 94.6302C36.4586 93.8302 36.6436 93.0752 37.0136 92.3652C37.3836 91.6452 37.8736 91.0702 38.4836 90.6402C39.1036 90.2002 39.7586 89.9802 40.4486 89.9802C40.6686 89.9802 40.8136 90.0252 40.8836 90.1152C40.9636 90.1952 41.0286 90.3452 41.0786 90.5652C41.2886 90.5252 41.5086 90.5052 41.7386 90.5052C42.2286 90.5052 42.4736 90.6802 42.4736 91.0302C42.4736 91.2402 42.3986 91.7402 42.2486 92.5302C42.0186 93.6802 41.9036 94.4802 41.9036 94.9302C41.9036 95.0802 41.9386 95.2002 42.0086 95.2902C42.0886 95.3802 42.1886 95.4252 42.3086 95.4252C42.4986 95.4252 42.7286 95.3052 42.9986 95.0652C43.2686 94.8152 43.6336 94.4152 44.0936 93.8652C44.2136 93.7252 44.3486 93.6552 44.4986 93.6552C44.6286 93.6552 44.7286 93.7152 44.7986 93.8352C44.8786 93.9552 44.9186 94.1202 44.9186 94.3302C44.9186 94.7302 44.8236 95.0402 44.6336 95.2602C44.2236 95.7702 43.7886 96.2002 43.3286 96.5502C42.8686 96.9002 42.4236 97.0752 41.9936 97.0752C41.6636 97.0752 41.3586 96.9652 41.0786 96.7452C40.8086 96.5152 40.6036 96.2052 40.4636 95.8152C39.9436 96.6552 39.2886 97.0752 38.4986 97.0752ZM39.0386 95.5602C39.2586 95.5602 39.4686 95.4302 39.6686 95.1702C39.8686 94.9102 40.0136 94.5652 40.1036 94.1352L40.6586 91.3752C40.2386 91.3852 39.8486 91.5452 39.4886 91.8552C39.1386 92.1552 38.8586 92.5552 38.6486 93.0552C38.4386 93.5552 38.3336 94.0852 38.3336 94.6452C38.3336 94.9552 38.3936 95.1852 38.5136 95.3352C38.6436 95.4852 38.8186 95.5602 39.0386 95.5602ZM45.2295 97.0752C44.7795 97.0752 44.4095 96.8702 44.1195 96.4602C43.8395 96.0402 43.6995 95.5202 43.6995 94.9002C43.6995 94.1502 43.7495 93.4652 43.8495 92.8452C43.9495 92.2152 44.1145 91.5502 44.3445 90.8502C44.4445 90.5502 44.5845 90.3352 44.7645 90.2052C44.9445 90.0752 45.2295 90.0102 45.6195 90.0102C45.8395 90.0102 45.9895 90.0452 46.0695 90.1152C46.1595 90.1852 46.2045 90.2902 46.2045 90.4302C46.2045 90.5102 46.1495 90.7802 46.0395 91.2402C45.9395 91.6102 45.8595 91.9452 45.7995 92.2452C45.5995 93.2952 45.4995 93.9952 45.4995 94.3452C45.4995 94.5552 45.5245 94.7052 45.5745 94.7952C45.6245 94.8752 45.7045 94.9152 45.8145 94.9152C45.9645 94.9152 46.1495 94.7652 46.3695 94.4652C46.5995 94.1652 46.8395 93.7102 47.0895 93.1002C47.3495 92.4902 47.5995 91.7402 47.8395 90.8502C47.9195 90.5502 48.0395 90.3352 48.1995 90.2052C48.3695 90.0752 48.6195 90.0102 48.9495 90.0102C49.1795 90.0102 49.3395 90.0402 49.4295 90.1002C49.5195 90.1502 49.5645 90.2502 49.5645 90.4002C49.5645 90.6502 49.4395 91.3352 49.1895 92.4552C48.9095 93.7352 48.7695 94.5252 48.7695 94.8252C48.7695 95.0152 48.8095 95.1652 48.8895 95.2752C48.9695 95.3752 49.0745 95.4252 49.2045 95.4252C49.4045 95.4252 49.6395 95.3052 49.9095 95.0652C50.1895 94.8152 50.5595 94.4152 51.0195 93.8652C51.1395 93.7252 51.2745 93.6552 51.4245 93.6552C51.5545 93.6552 51.6545 93.7152 51.7245 93.8352C51.8045 93.9552 51.8445 94.1202 51.8445 94.3302C51.8445 94.7302 51.7495 95.0402 51.5595 95.2602C51.1295 95.7902 50.6645 96.2252 50.1645 96.5652C49.6745 96.9052 49.1145 97.0752 48.4845 97.0752C48.0045 97.0752 47.6495 96.8902 47.4195 96.5202C47.1995 96.1502 47.0895 95.6302 47.0895 94.9602C46.9195 95.6402 46.6645 96.1652 46.3245 96.5352C45.9845 96.8952 45.6195 97.0752 45.2295 97.0752ZM46.8495 89.0202C46.3895 89.0202 45.9845 88.9252 45.6345 88.7352C45.2845 88.5452 45.0145 88.2952 44.8245 87.9852C44.6345 87.6752 44.5395 87.3452 44.5395 86.9952C44.5395 86.7452 44.6195 86.5452 44.7795 86.3952C44.9395 86.2352 45.1445 86.1552 45.3945 86.1552C45.6545 86.1552 45.8445 86.2152 45.9645 86.3352C46.0845 86.4552 46.1795 86.6602 46.2495 86.9502C46.3495 87.3702 46.6245 87.5802 47.0745 87.5802C47.5445 87.5802 47.9495 87.4502 48.2895 87.1902C48.6295 86.9202 48.8745 86.5952 49.0245 86.2152C49.1045 86.0152 49.1945 85.8752 49.2945 85.7952C49.3945 85.7052 49.5245 85.6602 49.6845 85.6602C49.8345 85.6602 49.9595 85.7202 50.0595 85.8402C50.1695 85.9502 50.2245 86.0902 50.2245 86.2602L50.1945 86.4402C50.0945 86.8502 49.9095 87.2502 49.6395 87.6402C49.3695 88.0302 48.9995 88.3602 48.5295 88.6302C48.0595 88.8902 47.4995 89.0202 46.8495 89.0202ZM51.6932 97.0752C51.3132 97.0752 51.0432 96.8752 50.8832 96.4752C50.7332 96.0752 50.6582 95.4352 50.6582 94.5552C50.6582 93.2552 50.8432 92.0202 51.2132 90.8502C51.3032 90.5602 51.4482 90.3502 51.6482 90.2202C51.8582 90.0802 52.1482 90.0102 52.5182 90.0102C52.7182 90.0102 52.8582 90.0352 52.9382 90.0852C53.0182 90.1352 53.0582 90.2302 53.0582 90.3702C53.0582 90.5302 52.9832 90.8902 52.8332 91.4502C52.7332 91.8502 52.6532 92.2002 52.5932 92.5002C52.5332 92.7902 52.4832 93.1552 52.4432 93.5952C52.7132 92.8152 53.0332 92.1552 53.4032 91.6152C53.7832 91.0752 54.1682 90.6752 54.5582 90.4152C54.9582 90.1452 55.3332 90.0102 55.6832 90.0102C56.0332 90.0102 56.2782 90.0902 56.4182 90.2502C56.5682 90.4102 56.6432 90.6552 56.6432 90.9852C56.6432 91.3052 56.5482 91.8852 56.3582 92.7252C56.2782 93.0852 56.2232 93.3552 56.1932 93.5352C56.6932 92.3052 57.2482 91.4102 57.8582 90.8502C58.4682 90.2902 59.0382 90.0102 59.5682 90.0102C60.2182 90.0102 60.5432 90.3352 60.5432 90.9852C60.5432 91.3752 60.4332 92.0802 60.2132 93.1002C60.0232 93.9702 59.9282 94.5452 59.9282 94.8252C59.9282 95.2252 60.0732 95.4252 60.3632 95.4252C60.5632 95.4252 60.7982 95.3052 61.0682 95.0652C61.3482 94.8152 61.7182 94.4152 62.1782 93.8652C62.2982 93.7252 62.4332 93.6552 62.5832 93.6552C62.7132 93.6552 62.8132 93.7152 62.8832 93.8352C62.9632 93.9552 63.0032 94.1202 63.0032 94.3302C63.0032 94.7302 62.9082 95.0402 62.7182 95.2602C62.2882 95.7902 61.8232 96.2252 61.3232 96.5652C60.8332 96.9052 60.2732 97.0752 59.6432 97.0752C59.1332 97.0752 58.7482 96.9302 58.4882 96.6402C58.2282 96.3402 58.0982 95.9102 58.0982 95.3502C58.0982 95.0702 58.1682 94.5702 58.3082 93.8502C58.4382 93.2202 58.5032 92.7852 58.5032 92.5452C58.5032 92.3852 58.4482 92.3052 58.3382 92.3052C58.2082 92.3052 58.0232 92.4752 57.7832 92.8152C57.5432 93.1452 57.3032 93.5852 57.0632 94.1352C56.8232 94.6852 56.6282 95.2652 56.4782 95.8752C56.3682 96.3552 56.2382 96.6752 56.0882 96.8352C55.9482 96.9952 55.7182 97.0752 55.3982 97.0752C55.0682 97.0752 54.8182 96.9202 54.6482 96.6102C54.4882 96.2902 54.4082 95.9052 54.4082 95.4552C54.4082 95.0752 54.4582 94.5252 54.5582 93.8052C54.6382 93.1652 54.6782 92.7452 54.6782 92.5452C54.6782 92.3852 54.6232 92.3052 54.5132 92.3052C54.3632 92.3052 54.1732 92.4852 53.9432 92.8452C53.7132 93.2052 53.4882 93.6652 53.2682 94.2252C53.0582 94.7852 52.8882 95.3352 52.7582 95.8752C52.6482 96.3452 52.5182 96.6652 52.3682 96.8352C52.2282 96.9952 52.0032 97.0752 51.6932 97.0752ZM68.4803 93.6552C68.6103 93.6552 68.7103 93.7152 68.7803 93.8352C68.8603 93.9552 68.9003 94.1202 68.9003 94.3302C68.9003 94.7302 68.8053 95.0402 68.6153 95.2602C68.2453 95.7102 67.7203 96.1252 67.0403 96.5052C66.3703 96.8852 65.6503 97.0752 64.8803 97.0752C63.8303 97.0752 63.0153 96.7902 62.4353 96.2202C61.8553 95.6502 61.5653 94.8702 61.5653 93.8802C61.5653 93.1902 61.7103 92.5502 62.0003 91.9602C62.2903 91.3602 62.6903 90.8852 63.2003 90.5352C63.7203 90.1852 64.3053 90.0102 64.9553 90.0102C65.5353 90.0102 66.0003 90.1852 66.3503 90.5352C66.7003 90.8752 66.8753 91.3402 66.8753 91.9302C66.8753 92.6202 66.6253 93.2152 66.1253 93.7152C65.6353 94.2052 64.8003 94.5952 63.6203 94.8852C63.8703 95.3452 64.3453 95.5752 65.0453 95.5752C65.4953 95.5752 66.0053 95.4202 66.5753 95.1102C67.1553 94.7902 67.6553 94.3752 68.0753 93.8652C68.1953 93.7252 68.3303 93.6552 68.4803 93.6552ZM64.7003 91.4802C64.3303 91.4802 64.0153 91.6952 63.7553 92.1252C63.5053 92.5552 63.3803 93.0752 63.3803 93.6852V93.7152C63.9703 93.5752 64.4353 93.3652 64.7753 93.0852C65.1153 92.8052 65.2853 92.4802 65.2853 92.1102C65.2853 91.9202 65.2303 91.7702 65.1203 91.6602C65.0203 91.5402 64.8803 91.4802 64.7003 91.4802ZM70.544 97.0752C69.564 97.0752 68.799 96.8002 68.249 96.2502C67.709 95.6902 67.439 94.9552 67.439 94.0452C67.439 93.2352 67.599 92.5252 67.919 91.9152C68.239 91.3052 68.654 90.8352 69.164 90.5052C69.674 90.1752 70.209 90.0102 70.769 90.0102C71.319 90.0102 71.744 90.1752 72.044 90.5052C72.354 90.8252 72.509 91.2402 72.509 91.7502C72.509 92.1702 72.414 92.5252 72.224 92.8152C72.044 93.1052 71.804 93.2502 71.504 93.2502C71.314 93.2502 71.159 93.2052 71.039 93.1152C70.929 93.0252 70.874 92.9002 70.874 92.7402C70.874 92.6702 70.884 92.5902 70.904 92.5002C70.924 92.4102 70.939 92.3452 70.949 92.3052C70.999 92.1552 71.024 92.0152 71.024 91.8852C71.024 91.7552 70.989 91.6552 70.919 91.5852C70.859 91.5152 70.769 91.4802 70.649 91.4802C70.419 91.4802 70.204 91.5852 70.004 91.7952C69.804 91.9952 69.644 92.2702 69.524 92.6202C69.404 92.9702 69.344 93.3552 69.344 93.7752C69.344 94.9352 69.849 95.5152 70.859 95.5152C71.269 95.5152 71.709 95.3802 72.179 95.1102C72.659 94.8302 73.129 94.4152 73.589 93.8652C73.709 93.7252 73.844 93.6552 73.994 93.6552C74.124 93.6552 74.224 93.7152 74.294 93.8352C74.374 93.9552 74.414 94.1202 74.414 94.3302C74.414 94.7102 74.319 95.0202 74.129 95.2602C73.659 95.8402 73.094 96.2902 72.434 96.6102C71.784 96.9202 71.154 97.0752 70.544 97.0752ZM81.7514 93.6552C81.8814 93.6552 81.9814 93.7152 82.0514 93.8352C82.1314 93.9552 82.1714 94.1202 82.1714 94.3302C82.1714 94.7302 82.0764 95.0402 81.8864 95.2602C81.4264 95.7902 80.9514 96.2252 80.4614 96.5652C79.9814 96.9052 79.4314 97.0752 78.8114 97.0752C78.4014 97.0752 78.0414 96.9552 77.7314 96.7152C77.2714 96.9552 76.7514 97.0752 76.1714 97.0752C75.2614 97.0752 74.5464 96.8202 74.0264 96.3102C73.5164 95.7902 73.2614 95.1152 73.2614 94.2852C73.2614 93.6852 73.3064 93.1152 73.3964 92.5752C73.4864 92.0352 73.6264 91.4602 73.8164 90.8502C73.9064 90.5602 74.0514 90.3502 74.2514 90.2202C74.4614 90.0802 74.7614 90.0102 75.1514 90.0102C75.6014 90.0102 75.8264 90.1302 75.8264 90.3702C75.8264 90.4702 75.7514 90.8302 75.6014 91.4502L75.4964 91.9002L75.2864 92.8002C75.5564 92.5302 75.8764 92.3102 76.2464 92.1402C76.6264 91.9602 77.0114 91.8702 77.4014 91.8702C78.0114 91.8702 78.4914 92.0702 78.8414 92.4702C79.2014 92.8702 79.3814 93.3802 79.3814 94.0002C79.3814 94.4802 79.2664 94.9502 79.0364 95.4102C79.0864 95.4202 79.1564 95.4252 79.2464 95.4252C79.5764 95.4252 79.8914 95.3052 80.1914 95.0652C80.4914 94.8252 80.8764 94.4252 81.3464 93.8652C81.4664 93.7252 81.6014 93.6552 81.7514 93.6552ZM76.2464 95.4852C76.6464 95.4852 76.9564 95.3752 77.1764 95.1552C77.3964 94.9352 77.5064 94.6302 77.5064 94.2402C77.5064 93.7102 77.2214 93.4452 76.6514 93.4452C76.3214 93.4452 76.0264 93.5402 75.7664 93.7302C75.5164 93.9202 75.3114 94.1352 75.1514 94.3752C75.1914 94.7352 75.2964 95.0102 75.4664 95.2002C75.6364 95.3902 75.8964 95.4852 76.2464 95.4852ZM92.5702 92.3952C92.7002 92.3952 92.8002 92.4602 92.8702 92.5902C92.9402 92.7202 92.9752 92.8852 92.9752 93.0852C92.9752 93.5652 92.8302 93.8502 92.5402 93.9402C91.9402 94.1502 91.2802 94.2702 90.5602 94.3002C90.3702 95.1402 89.9952 95.8152 89.4352 96.3252C88.8752 96.8252 88.2402 97.0752 87.5302 97.0752C86.9302 97.0752 86.4152 96.9302 85.9852 96.6402C85.5652 96.3502 85.2452 95.9652 85.0252 95.4852C84.8052 95.0052 84.6952 94.4852 84.6952 93.9252C84.6952 93.1652 84.8402 92.4902 85.1302 91.9002C85.4202 91.3002 85.8202 90.8352 86.3302 90.5052C86.8402 90.1652 87.4052 89.9952 88.0252 89.9952C88.7852 89.9952 89.3952 90.2602 89.8552 90.7902C90.3252 91.3102 90.6002 91.9552 90.6802 92.7252C91.1502 92.6952 91.7102 92.5952 92.3602 92.4252C92.4402 92.4052 92.5102 92.3952 92.5702 92.3952ZM87.6502 95.4852C87.9702 95.4852 88.2452 95.3552 88.4752 95.0952C88.7152 94.8352 88.8752 94.4602 88.9552 93.9702C88.6452 93.7602 88.4052 93.4852 88.2352 93.1452C88.0752 92.8052 87.9952 92.4452 87.9952 92.0652C87.9952 91.9052 88.0102 91.7452 88.0402 91.5852H87.9652C87.5652 91.5852 87.2302 91.7802 86.9602 92.1702C86.7002 92.5502 86.5702 93.0902 86.5702 93.7902C86.5702 94.3402 86.6752 94.7602 86.8852 95.0502C87.1052 95.3402 87.3602 95.4852 87.6502 95.4852ZM99.6978 93.6552C99.8278 93.6552 99.9278 93.7152 99.9978 93.8352C100.078 93.9552 100.118 94.1202 100.118 94.3302C100.118 94.7302 100.023 95.0402 99.8328 95.2602C99.4028 95.7902 98.9378 96.2252 98.4378 96.5652C97.9478 96.9052 97.3878 97.0752 96.7578 97.0752C96.2278 97.0752 95.7978 96.8852 95.4678 96.5052C94.8978 96.8752 94.3028 97.0652 93.6828 97.0752C93.5528 99.0052 93.2578 100.615 92.7978 101.905C92.3378 103.205 91.6628 103.855 90.7728 103.855C90.2328 103.855 89.8328 103.66 89.5728 103.27C89.3128 102.88 89.1828 102.34 89.1828 101.65C89.1828 100.67 89.4078 99.5252 89.8578 98.2152C90.3078 96.9152 91.0028 95.4802 91.9428 93.9102C91.9428 92.4502 91.9328 91.4352 91.9128 90.8652C91.9028 90.5752 92.0178 90.3452 92.2578 90.1752C92.4978 90.0052 92.7978 89.9202 93.1578 89.9202C93.3678 89.9202 93.5178 89.9652 93.6078 90.0552C93.7078 90.1352 93.7628 90.3002 93.7728 90.5502C93.7728 90.8002 93.7778 90.9852 93.7878 91.1052C94.1078 90.7052 94.4228 90.4202 94.7328 90.2502C95.0428 90.0702 95.3728 89.9802 95.7228 89.9802C96.2828 89.9802 96.7378 90.2052 97.0878 90.6552C97.4478 91.1052 97.6278 91.6952 97.6278 92.4252C97.6278 92.9552 97.5428 93.4702 97.3728 93.9702C97.2028 94.4702 96.9678 94.9252 96.6678 95.3352C96.8778 95.3952 97.0528 95.4252 97.1928 95.4252C97.5228 95.4252 97.8378 95.3052 98.1378 95.0652C98.4378 94.8252 98.8228 94.4252 99.2928 93.8652C99.4128 93.7252 99.5478 93.6552 99.6978 93.6552ZM93.7578 95.6352C94.1178 95.5552 94.4478 95.3602 94.7478 95.0502C95.0578 94.7302 95.3028 94.3402 95.4828 93.8802C95.6628 93.4102 95.7528 92.9202 95.7528 92.4102C95.7528 92.1102 95.6928 91.8852 95.5728 91.7352C95.4528 91.5752 95.2928 91.4952 95.0928 91.4952C94.7328 91.4952 94.2978 91.8752 93.7878 92.6352C93.7778 93.0752 93.7728 93.7202 93.7728 94.5702C93.7728 95.0302 93.7678 95.3852 93.7578 95.6352ZM90.8928 102.385C91.1628 102.385 91.3878 101.795 91.5678 100.615C91.7478 99.4452 91.8628 97.9852 91.9128 96.2352C91.4828 97.2352 91.1428 98.1902 90.8928 99.1002C90.6428 100.01 90.5178 100.775 90.5178 101.395C90.5178 101.715 90.5578 101.96 90.6378 102.13C90.7078 102.3 90.7928 102.385 90.8928 102.385ZM100.874 89.0202C100.454 89.0202 100.139 88.9252 99.9295 88.7352C99.7195 88.5352 99.6145 88.2602 99.6145 87.9102C99.6145 87.5602 99.7495 87.2702 100.019 87.0402C100.299 86.8002 100.644 86.6802 101.054 86.6802C101.424 86.6802 101.724 86.7702 101.954 86.9502C102.184 87.1302 102.299 87.3852 102.299 87.7152C102.299 88.1152 102.169 88.4352 101.909 88.6752C101.649 88.9052 101.304 89.0202 100.874 89.0202ZM100.754 97.0752C100.104 97.0752 99.6295 96.8452 99.3295 96.3852C99.0395 95.9252 98.8945 95.3152 98.8945 94.5552C98.8945 94.1052 98.9495 93.5302 99.0595 92.8302C99.1795 92.1202 99.3295 91.4602 99.5095 90.8502C99.5995 90.5302 99.7195 90.3102 99.8695 90.1902C100.019 90.0702 100.259 90.0102 100.589 90.0102C101.099 90.0102 101.354 90.1802 101.354 90.5202C101.354 90.7702 101.259 91.3502 101.069 92.2602C100.829 93.3602 100.709 94.1052 100.709 94.4952C100.709 94.7952 100.749 95.0252 100.829 95.1852C100.909 95.3452 101.044 95.4252 101.234 95.4252C101.414 95.4252 101.639 95.3002 101.909 95.0502C102.179 94.8002 102.539 94.4052 102.989 93.8652C103.109 93.7252 103.244 93.6552 103.394 93.6552C103.524 93.6552 103.624 93.7152 103.694 93.8352C103.774 93.9552 103.814 94.1202 103.814 94.3302C103.814 94.7302 103.719 95.0402 103.529 95.2602C102.539 96.4702 101.614 97.0752 100.754 97.0752ZM109.081 93.6552C109.211 93.6552 109.311 93.7152 109.381 93.8352C109.461 93.9552 109.501 94.1202 109.501 94.3302C109.501 94.7102 109.406 95.0202 109.216 95.2602C108.746 95.8402 108.181 96.2902 107.521 96.6102C106.871 96.9202 106.241 97.0752 105.631 97.0752C104.631 97.0752 103.836 96.7902 103.246 96.2202C102.666 95.6402 102.376 94.8752 102.376 93.9252C102.376 93.1752 102.506 92.5052 102.766 91.9152C103.036 91.3152 103.421 90.8502 103.921 90.5202C104.431 90.1802 105.026 90.0102 105.706 90.0102C106.456 90.0102 107.006 90.1602 107.356 90.4602C107.716 90.7602 107.896 91.1402 107.896 91.6002C107.896 91.8702 107.831 92.0702 107.701 92.2002C107.571 92.3202 107.356 92.3802 107.056 92.3802C106.836 92.3802 106.681 92.3502 106.591 92.2902C106.501 92.2202 106.451 92.1202 106.441 91.9902C106.431 91.8102 106.376 91.6802 106.276 91.6002C106.176 91.5202 106.011 91.4802 105.781 91.4802C105.421 91.4802 105.121 91.6052 104.881 91.8552C104.651 92.0952 104.486 92.4252 104.386 92.8452C104.756 92.8552 105.246 92.8602 105.856 92.8602C106.066 92.8602 106.226 92.9152 106.336 93.0252C106.446 93.1252 106.501 93.2802 106.501 93.4902C106.501 93.7002 106.446 93.8602 106.336 93.9702C106.236 94.0702 106.046 94.1252 105.766 94.1352L105.001 94.1502L104.296 94.1352C104.406 95.0552 104.956 95.5152 105.946 95.5152C106.356 95.5152 106.796 95.3802 107.266 95.1102C107.746 94.8302 108.216 94.4152 108.676 93.8652C108.796 93.7252 108.931 93.6552 109.081 93.6552ZM116.204 93.6552C116.334 93.6552 116.434 93.7152 116.504 93.8352C116.584 93.9552 116.624 94.1202 116.624 94.3302C116.624 94.7302 116.529 95.0402 116.339 95.2602C115.879 95.7902 115.404 96.2252 114.914 96.5652C114.434 96.9052 113.884 97.0752 113.264 97.0752C112.744 97.0752 112.379 96.9152 112.169 96.5952C111.959 96.2752 111.854 95.7952 111.854 95.1552C111.854 94.8852 111.879 94.5602 111.929 94.1802C111.049 94.1802 110.439 94.1702 110.099 94.1502C110.079 94.4302 110.069 94.6252 110.069 94.7352V95.0502C110.059 95.6702 110.044 96.1052 110.024 96.3552C110.004 96.6052 109.944 96.7902 109.844 96.9102C109.744 97.0202 109.579 97.0752 109.349 97.0752C108.969 97.0752 108.699 96.8752 108.539 96.4752C108.389 96.0752 108.314 95.4352 108.314 94.5552C108.314 93.2552 108.499 92.0202 108.869 90.8502C108.959 90.5602 109.104 90.3502 109.304 90.2202C109.504 90.0802 109.794 90.0102 110.174 90.0102C110.374 90.0102 110.514 90.0352 110.594 90.0852C110.674 90.1352 110.714 90.2302 110.714 90.3702C110.714 90.5302 110.639 90.8902 110.489 91.4502C110.409 91.7802 110.334 92.1802 110.264 92.6502H112.184C112.284 92.1802 112.429 91.5802 112.619 90.8502C112.699 90.5502 112.819 90.3352 112.979 90.2052C113.149 90.0752 113.399 90.0102 113.729 90.0102C113.959 90.0102 114.119 90.0402 114.209 90.1002C114.299 90.1502 114.344 90.2502 114.344 90.4002C114.344 90.6502 114.219 91.3352 113.969 92.4552C113.689 93.7352 113.549 94.5252 113.549 94.8252C113.549 95.0152 113.589 95.1652 113.669 95.2752C113.749 95.3752 113.854 95.4252 113.984 95.4252C114.184 95.4252 114.419 95.3052 114.689 95.0652C114.969 94.8152 115.339 94.4152 115.799 93.8652C115.919 93.7252 116.054 93.6552 116.204 93.6552ZM116.469 97.0752C116.089 97.0752 115.819 96.8752 115.659 96.4752C115.509 96.0752 115.434 95.4352 115.434 94.5552C115.434 93.2552 115.619 92.0202 115.989 90.8502C116.079 90.5602 116.224 90.3502 116.424 90.2202C116.634 90.0802 116.924 90.0102 117.294 90.0102C117.494 90.0102 117.634 90.0352 117.714 90.0852C117.794 90.1352 117.834 90.2302 117.834 90.3702C117.834 90.5302 117.759 90.8902 117.609 91.4502C117.509 91.8502 117.429 92.2002 117.369 92.5002C117.309 92.7902 117.259 93.1552 117.219 93.5952C117.489 92.8152 117.809 92.1552 118.179 91.6152C118.559 91.0752 118.944 90.6752 119.334 90.4152C119.734 90.1452 120.109 90.0102 120.459 90.0102C120.809 90.0102 121.054 90.0902 121.194 90.2502C121.344 90.4102 121.419 90.6552 121.419 90.9852C121.419 91.3052 121.324 91.8852 121.134 92.7252C121.054 93.0852 120.999 93.3552 120.969 93.5352C121.469 92.3052 122.024 91.4102 122.634 90.8502C123.244 90.2902 123.814 90.0102 124.344 90.0102C124.994 90.0102 125.319 90.3352 125.319 90.9852C125.319 91.3752 125.209 92.0802 124.989 93.1002C124.799 93.9702 124.704 94.5452 124.704 94.8252C124.704 95.2252 124.849 95.4252 125.139 95.4252C125.339 95.4252 125.574 95.3052 125.844 95.0652C126.124 94.8152 126.494 94.4152 126.954 93.8652C127.074 93.7252 127.209 93.6552 127.359 93.6552C127.489 93.6552 127.589 93.7152 127.659 93.8352C127.739 93.9552 127.779 94.1202 127.779 94.3302C127.779 94.7302 127.684 95.0402 127.494 95.2602C127.064 95.7902 126.599 96.2252 126.099 96.5652C125.609 96.9052 125.049 97.0752 124.419 97.0752C123.909 97.0752 123.524 96.9302 123.264 96.6402C123.004 96.3402 122.874 95.9102 122.874 95.3502C122.874 95.0702 122.944 94.5702 123.084 93.8502C123.214 93.2202 123.279 92.7852 123.279 92.5452C123.279 92.3852 123.224 92.3052 123.114 92.3052C122.984 92.3052 122.799 92.4752 122.559 92.8152C122.319 93.1452 122.079 93.5852 121.839 94.1352C121.599 94.6852 121.404 95.2652 121.254 95.8752C121.144 96.3552 121.014 96.6752 120.864 96.8352C120.724 96.9952 120.494 97.0752 120.174 97.0752C119.844 97.0752 119.594 96.9202 119.424 96.6102C119.264 96.2902 119.184 95.9052 119.184 95.4552C119.184 95.0752 119.234 94.5252 119.334 93.8052C119.414 93.1652 119.454 92.7452 119.454 92.5452C119.454 92.3852 119.399 92.3052 119.289 92.3052C119.139 92.3052 118.949 92.4852 118.719 92.8452C118.489 93.2052 118.264 93.6652 118.044 94.2252C117.834 94.7852 117.664 95.3352 117.534 95.8752C117.424 96.3452 117.294 96.6652 117.144 96.8352C117.004 96.9952 116.779 97.0752 116.469 97.0752ZM134.216 92.3952C134.346 92.3952 134.446 92.4602 134.516 92.5902C134.586 92.7202 134.621 92.8852 134.621 93.0852C134.621 93.5652 134.476 93.8502 134.186 93.9402C133.586 94.1502 132.926 94.2702 132.206 94.3002C132.016 95.1402 131.641 95.8152 131.081 96.3252C130.521 96.8252 129.886 97.0752 129.176 97.0752C128.576 97.0752 128.061 96.9302 127.631 96.6402C127.211 96.3502 126.891 95.9652 126.671 95.4852C126.451 95.0052 126.341 94.4852 126.341 93.9252C126.341 93.1652 126.486 92.4902 126.776 91.9002C127.066 91.3002 127.466 90.8352 127.976 90.5052C128.486 90.1652 129.051 89.9952 129.671 89.9952C130.431 89.9952 131.041 90.2602 131.501 90.7902C131.971 91.3102 132.246 91.9552 132.326 92.7252C132.796 92.6952 133.356 92.5952 134.006 92.4252C134.086 92.4052 134.156 92.3952 134.216 92.3952ZM129.296 95.4852C129.616 95.4852 129.891 95.3552 130.121 95.0952C130.361 94.8352 130.521 94.4602 130.601 93.9702C130.291 93.7602 130.051 93.4852 129.881 93.1452C129.721 92.8052 129.641 92.4452 129.641 92.0652C129.641 91.9052 129.656 91.7452 129.686 91.5852H129.611C129.211 91.5852 128.876 91.7802 128.606 92.1702C128.346 92.5502 128.216 93.0902 128.216 93.7902C128.216 94.3402 128.321 94.7602 128.531 95.0502C128.751 95.3402 129.006 95.4852 129.296 95.4852ZM141.313 92.3952C141.443 92.3952 141.543 92.4602 141.613 92.5902C141.683 92.7202 141.718 92.8852 141.718 93.0852C141.718 93.3352 141.683 93.5302 141.613 93.6702C141.543 93.8002 141.433 93.8902 141.283 93.9402C140.683 94.1502 140.023 94.2702 139.303 94.3002C139.103 95.1302 138.723 95.8002 138.163 96.3102C137.613 96.8202 137.003 97.0752 136.333 97.0752C135.323 97.0752 134.588 96.6902 134.128 95.9202C133.668 95.1502 133.438 94.0352 133.438 92.5752C133.438 91.2852 133.598 89.8852 133.918 88.3752C134.238 86.8552 134.703 85.5652 135.313 84.5052C135.933 83.4352 136.668 82.9002 137.518 82.9002C137.978 82.9002 138.348 83.1002 138.628 83.5002C138.908 83.8902 139.048 84.4002 139.048 85.0302C139.048 85.8502 138.893 86.6652 138.583 87.4752C138.273 88.2852 137.758 89.1352 137.038 90.0252C137.708 90.0752 138.253 90.3552 138.673 90.8652C139.093 91.3652 139.343 91.9852 139.423 92.7252C139.893 92.6952 140.453 92.5952 141.103 92.4252C141.163 92.4052 141.233 92.3952 141.313 92.3952ZM137.173 84.3852C136.973 84.3852 136.753 84.6852 136.513 85.2852C136.283 85.8752 136.068 86.6802 135.868 87.7002C135.668 88.7202 135.518 89.8352 135.418 91.0452C136.078 89.8352 136.603 88.7702 136.993 87.8502C137.393 86.9202 137.593 86.0952 137.593 85.3752C137.593 85.0552 137.553 84.8102 137.473 84.6402C137.403 84.4702 137.303 84.3852 137.173 84.3852ZM136.393 95.4852C136.703 95.4852 136.978 95.3552 137.218 95.0952C137.458 94.8352 137.618 94.4602 137.698 93.9702C137.388 93.7602 137.148 93.4852 136.978 93.1452C136.818 92.8052 136.738 92.4452 136.738 92.0652C136.738 91.9252 136.758 91.7352 136.798 91.4952H136.753C136.343 91.4952 135.998 91.7002 135.718 92.1102C135.448 92.5102 135.313 93.0502 135.313 93.7302C135.313 94.3002 135.418 94.7352 135.628 95.0352C135.848 95.3352 136.103 95.4852 136.393 95.4852ZM148.343 93.6552C148.473 93.6552 148.573 93.7152 148.643 93.8352C148.723 93.9552 148.763 94.1202 148.763 94.3302C148.763 94.7302 148.668 95.0402 148.478 95.2602C148.018 95.7902 147.543 96.2252 147.053 96.5652C146.573 96.9052 146.023 97.0752 145.403 97.0752C144.883 97.0752 144.518 96.9152 144.308 96.5952C144.098 96.2752 143.993 95.7952 143.993 95.1552C143.993 94.8852 144.018 94.5602 144.068 94.1802C143.188 94.1802 142.578 94.1702 142.238 94.1502C142.218 94.4302 142.208 94.6252 142.208 94.7352V95.0502C142.198 95.6702 142.183 96.1052 142.163 96.3552C142.143 96.6052 142.083 96.7902 141.983 96.9102C141.883 97.0202 141.718 97.0752 141.488 97.0752C141.108 97.0752 140.838 96.8752 140.678 96.4752C140.528 96.0752 140.453 95.4352 140.453 94.5552C140.453 93.2552 140.638 92.0202 141.008 90.8502C141.098 90.5602 141.243 90.3502 141.443 90.2202C141.643 90.0802 141.933 90.0102 142.313 90.0102C142.513 90.0102 142.653 90.0352 142.733 90.0852C142.813 90.1352 142.853 90.2302 142.853 90.3702C142.853 90.5302 142.778 90.8902 142.628 91.4502C142.548 91.7802 142.473 92.1802 142.403 92.6502H144.323C144.423 92.1802 144.568 91.5802 144.758 90.8502C144.838 90.5502 144.958 90.3352 145.118 90.2052C145.288 90.0752 145.538 90.0102 145.868 90.0102C146.098 90.0102 146.258 90.0402 146.348 90.1002C146.438 90.1502 146.483 90.2502 146.483 90.4002C146.483 90.6502 146.358 91.3352 146.108 92.4552C145.828 93.7352 145.688 94.5252 145.688 94.8252C145.688 95.0152 145.728 95.1652 145.808 95.2752C145.888 95.3752 145.993 95.4252 146.123 95.4252C146.323 95.4252 146.558 95.3052 146.828 95.0652C147.108 94.8152 147.478 94.4152 147.938 93.8652C148.058 93.7252 148.193 93.6552 148.343 93.6552ZM155.222 93.6852C155.352 93.6852 155.452 93.7502 155.522 93.8802C155.602 94.0002 155.642 94.1552 155.642 94.3452C155.642 94.5752 155.607 94.7552 155.537 94.8852C155.467 95.0152 155.357 95.1302 155.207 95.2302L152.327 97.1652C151.947 99.2352 151.447 100.86 150.827 102.04C150.217 103.23 149.437 103.825 148.487 103.825C147.977 103.825 147.562 103.665 147.242 103.345C146.922 103.035 146.762 102.625 146.762 102.115C146.762 101.645 146.867 101.165 147.077 100.675C147.297 100.185 147.697 99.6202 148.277 98.9802C148.867 98.3502 149.697 97.6252 150.767 96.8052L150.812 96.4602C150.882 96.0902 150.962 95.5602 151.052 94.8702C150.852 95.5902 150.572 96.1402 150.212 96.5202C149.852 96.8902 149.472 97.0752 149.072 97.0752C148.622 97.0752 148.252 96.8702 147.962 96.4602C147.682 96.0402 147.542 95.5202 147.542 94.9002C147.542 94.1502 147.592 93.4652 147.692 92.8452C147.792 92.2152 147.957 91.5502 148.187 90.8502C148.287 90.5502 148.427 90.3352 148.607 90.2052C148.787 90.0752 149.072 90.0102 149.462 90.0102C149.682 90.0102 149.832 90.0452 149.912 90.1152C150.002 90.1852 150.047 90.2902 150.047 90.4302C150.047 90.5102 149.992 90.7802 149.882 91.2402C149.782 91.6102 149.702 91.9452 149.642 92.2452C149.562 92.6552 149.492 93.0502 149.432 93.4302C149.372 93.8002 149.342 94.1052 149.342 94.3452C149.342 94.7252 149.447 94.9152 149.657 94.9152C149.807 94.9152 149.992 94.7652 150.212 94.4652C150.442 94.1652 150.682 93.7102 150.932 93.1002C151.192 92.4902 151.442 91.7402 151.682 90.8502C151.762 90.5502 151.882 90.3352 152.042 90.2052C152.212 90.0752 152.462 90.0102 152.792 90.0102C153.022 90.0102 153.182 90.0402 153.272 90.1002C153.362 90.1602 153.407 90.2602 153.407 90.4002C153.407 90.6502 153.277 91.5102 153.017 92.9802L152.627 95.3952C153.397 94.8152 154.147 94.2852 154.877 93.8052C155.007 93.7252 155.122 93.6852 155.222 93.6852ZM148.652 102.37C148.902 102.37 149.182 102.08 149.492 101.5C149.802 100.92 150.112 99.9552 150.422 98.6052C149.652 99.2552 149.092 99.8452 148.742 100.375C148.402 100.915 148.232 101.385 148.232 101.785C148.232 101.955 148.262 102.095 148.322 102.205C148.392 102.315 148.502 102.37 148.652 102.37ZM58.5186 114.86C58.0686 115.17 57.3486 115.62 56.3586 116.21C56.2286 116.81 56.1036 117.33 55.9836 117.77C55.7336 118.67 55.3636 119.36 54.8736 119.84C54.3836 120.32 53.8236 120.56 53.1936 120.56C52.7736 120.56 52.4236 120.42 52.1436 120.14C51.8736 119.86 51.7386 119.51 51.7386 119.09C51.7386 118.73 51.8236 118.385 51.9936 118.055C52.1736 117.735 52.4936 117.375 52.9536 116.975C53.4236 116.575 54.0836 116.12 54.9336 115.61V115.58C54.6436 115.53 54.4136 115.365 54.2436 115.085C54.0836 114.795 54.0036 114.42 54.0036 113.96C53.8436 114.61 53.5936 115.125 53.2536 115.505C52.9236 115.885 52.5536 116.075 52.1436 116.075C51.7036 116.075 51.3386 115.87 51.0486 115.46C50.7586 115.05 50.6136 114.53 50.6136 113.9C50.6136 113.16 50.6636 112.48 50.7636 111.86C50.8636 111.23 51.0286 110.56 51.2586 109.85C51.3586 109.54 51.4986 109.325 51.6786 109.205C51.8686 109.075 52.1536 109.01 52.5336 109.01C52.7436 109.01 52.8936 109.045 52.9836 109.115C53.0736 109.175 53.1186 109.28 53.1186 109.43C53.1186 109.51 53.0636 109.78 52.9536 110.24C52.8536 110.61 52.7736 110.945 52.7136 111.245C52.5136 112.305 52.4136 113.005 52.4136 113.345C52.4136 113.545 52.4386 113.69 52.4886 113.78C52.5386 113.87 52.6186 113.915 52.7286 113.915C52.9986 113.915 53.3236 113.535 53.7036 112.775C54.0836 112.015 54.4336 111.04 54.7536 109.85C54.8336 109.54 54.9586 109.325 55.1286 109.205C55.2986 109.075 55.5436 109.01 55.8636 109.01C56.0936 109.01 56.2536 109.04 56.3436 109.1C56.4336 109.15 56.4786 109.25 56.4786 109.4C56.4786 109.64 56.3536 110.3 56.1036 111.38C55.9936 111.83 55.8936 112.275 55.8036 112.715C55.7136 113.155 55.6686 113.47 55.6686 113.66C55.6686 113.85 55.6936 113.985 55.7436 114.065C55.7936 114.135 55.8686 114.17 55.9686 114.17C56.0086 114.17 56.0536 114.165 56.1036 114.155C56.1536 114.145 56.2036 114.14 56.2536 114.14C56.3236 114.14 56.3736 114.175 56.4036 114.245C56.4436 114.315 56.4586 114.455 56.4486 114.665C57.0886 114.265 57.6686 113.87 58.1886 113.48C58.2986 113.4 58.4136 113.36 58.5336 113.36C58.6636 113.36 58.7636 113.42 58.8336 113.54C58.9136 113.66 58.9536 113.82 58.9536 114.02C58.9536 114.23 58.9236 114.395 58.8636 114.515C58.8036 114.625 58.6886 114.74 58.5186 114.86ZM53.5086 119.15C53.7686 119.15 54.0186 118.96 54.2586 118.58C54.4986 118.2 54.6636 117.695 54.7536 117.065C53.7136 117.685 53.1936 118.27 53.1936 118.82C53.1936 119.04 53.2986 119.15 53.5086 119.15ZM59.9321 108.02C59.5121 108.02 59.1971 107.925 58.9871 107.735C58.7771 107.535 58.6721 107.26 58.6721 106.91C58.6721 106.56 58.8071 106.27 59.0771 106.04C59.3571 105.8 59.7021 105.68 60.1121 105.68C60.4821 105.68 60.7821 105.77 61.0121 105.95C61.2421 106.13 61.3571 106.385 61.3571 106.715C61.3571 107.115 61.2271 107.435 60.9671 107.675C60.7071 107.905 60.3621 108.02 59.9321 108.02ZM59.8121 116.075C59.1621 116.075 58.6871 115.845 58.3871 115.385C58.0971 114.925 57.9521 114.315 57.9521 113.555C57.9521 113.105 58.0071 112.53 58.1171 111.83C58.2371 111.12 58.3871 110.46 58.5671 109.85C58.6571 109.53 58.7771 109.31 58.9271 109.19C59.0771 109.07 59.3171 109.01 59.6471 109.01C60.1571 109.01 60.4121 109.18 60.4121 109.52C60.4121 109.77 60.3171 110.35 60.1271 111.26C59.8871 112.36 59.7671 113.105 59.7671 113.495C59.7671 113.795 59.8071 114.025 59.8871 114.185C59.9671 114.345 60.1021 114.425 60.2921 114.425C60.4721 114.425 60.6971 114.3 60.9671 114.05C61.2371 113.8 61.5971 113.405 62.0471 112.865C62.1671 112.725 62.3021 112.655 62.4521 112.655C62.5821 112.655 62.6821 112.715 62.7521 112.835C62.8321 112.955 62.8721 113.12 62.8721 113.33C62.8721 113.73 62.7771 114.04 62.5871 114.26C61.5971 115.47 60.6721 116.075 59.8121 116.075ZM69.5785 112.655C69.7085 112.655 69.8085 112.715 69.8785 112.835C69.9585 112.955 69.9985 113.12 69.9985 113.33C69.9985 113.73 69.9035 114.04 69.7135 114.26C69.2535 114.79 68.7785 115.225 68.2885 115.565C67.8085 115.905 67.2585 116.075 66.6385 116.075C66.1185 116.075 65.7535 115.915 65.5435 115.595C65.3335 115.275 65.2285 114.795 65.2285 114.155C65.2285 113.885 65.2535 113.56 65.3035 113.18C64.4235 113.18 63.8135 113.17 63.4735 113.15C63.4535 113.43 63.4435 113.625 63.4435 113.735V114.05C63.4335 114.67 63.4185 115.105 63.3985 115.355C63.3785 115.605 63.3185 115.79 63.2185 115.91C63.1185 116.02 62.9535 116.075 62.7235 116.075C62.3435 116.075 62.0735 115.875 61.9135 115.475C61.7635 115.075 61.6885 114.435 61.6885 113.555C61.6885 112.255 61.8735 111.02 62.2435 109.85C62.3335 109.56 62.4785 109.35 62.6785 109.22C62.8785 109.08 63.1685 109.01 63.5485 109.01C63.7485 109.01 63.8885 109.035 63.9685 109.085C64.0485 109.135 64.0885 109.23 64.0885 109.37C64.0885 109.53 64.0135 109.89 63.8635 110.45C63.7835 110.78 63.7085 111.18 63.6385 111.65H65.5585C65.6585 111.18 65.8035 110.58 65.9935 109.85C66.0735 109.55 66.1935 109.335 66.3535 109.205C66.5235 109.075 66.7735 109.01 67.1035 109.01C67.3335 109.01 67.4935 109.04 67.5835 109.1C67.6735 109.15 67.7185 109.25 67.7185 109.4C67.7185 109.65 67.5935 110.335 67.3435 111.455C67.0635 112.735 66.9235 113.525 66.9235 113.825C66.9235 114.015 66.9635 114.165 67.0435 114.275C67.1235 114.375 67.2285 114.425 67.3585 114.425C67.5585 114.425 67.7935 114.305 68.0635 114.065C68.3435 113.815 68.7135 113.415 69.1735 112.865C69.2935 112.725 69.4285 112.655 69.5785 112.655ZM76.4576 112.685C76.5876 112.685 76.6876 112.75 76.7576 112.88C76.8376 113 76.8776 113.155 76.8776 113.345C76.8776 113.575 76.8426 113.755 76.7726 113.885C76.7026 114.015 76.5926 114.13 76.4426 114.23L73.5626 116.165C73.1826 118.235 72.6826 119.86 72.0626 121.04C71.4526 122.23 70.6726 122.825 69.7226 122.825C69.2126 122.825 68.7976 122.665 68.4776 122.345C68.1576 122.035 67.9976 121.625 67.9976 121.115C67.9976 120.645 68.1026 120.165 68.3126 119.675C68.5326 119.185 68.9326 118.62 69.5126 117.98C70.1026 117.35 70.9326 116.625 72.0026 115.805L72.0476 115.46C72.1176 115.09 72.1976 114.56 72.2876 113.87C72.0876 114.59 71.8076 115.14 71.4476 115.52C71.0876 115.89 70.7076 116.075 70.3076 116.075C69.8576 116.075 69.4876 115.87 69.1976 115.46C68.9176 115.04 68.7776 114.52 68.7776 113.9C68.7776 113.15 68.8276 112.465 68.9276 111.845C69.0276 111.215 69.1926 110.55 69.4226 109.85C69.5226 109.55 69.6626 109.335 69.8426 109.205C70.0226 109.075 70.3076 109.01 70.6976 109.01C70.9176 109.01 71.0676 109.045 71.1476 109.115C71.2376 109.185 71.2826 109.29 71.2826 109.43C71.2826 109.51 71.2276 109.78 71.1176 110.24C71.0176 110.61 70.9376 110.945 70.8776 111.245C70.7976 111.655 70.7276 112.05 70.6676 112.43C70.6076 112.8 70.5776 113.105 70.5776 113.345C70.5776 113.725 70.6826 113.915 70.8926 113.915C71.0426 113.915 71.2276 113.765 71.4476 113.465C71.6776 113.165 71.9176 112.71 72.1676 112.1C72.4276 111.49 72.6776 110.74 72.9176 109.85C72.9976 109.55 73.1176 109.335 73.2776 109.205C73.4476 109.075 73.6976 109.01 74.0276 109.01C74.2576 109.01 74.4176 109.04 74.5076 109.1C74.5976 109.16 74.6426 109.26 74.6426 109.4C74.6426 109.65 74.5126 110.51 74.2526 111.98L73.8626 114.395C74.6326 113.815 75.3826 113.285 76.1126 112.805C76.2426 112.725 76.3576 112.685 76.4576 112.685ZM69.8876 121.37C70.1376 121.37 70.4176 121.08 70.7276 120.5C71.0376 119.92 71.3476 118.955 71.6576 117.605C70.8876 118.255 70.3276 118.845 69.9776 119.375C69.6376 119.915 69.4676 120.385 69.4676 120.785C69.4676 120.955 69.4976 121.095 69.5576 121.205C69.6276 121.315 69.7376 121.37 69.8876 121.37ZM86.9451 112.685C87.0751 112.685 87.1751 112.745 87.2451 112.865C87.3251 112.985 87.3651 113.145 87.3651 113.345C87.3651 113.775 87.2251 114.07 86.9451 114.23C85.8051 114.89 84.7951 115.52 83.9151 116.12C83.9851 116.4 84.0201 116.73 84.0201 117.11C84.0201 118.03 83.8451 118.93 83.4951 119.81C83.1551 120.7 82.6951 121.425 82.1151 121.985C81.5451 122.545 80.9401 122.825 80.3001 122.825C79.7501 122.825 79.3251 122.67 79.0251 122.36C78.7251 122.06 78.5751 121.63 78.5751 121.07C78.5751 120.22 78.8301 119.395 79.3401 118.595C79.8501 117.795 80.7451 116.895 82.0251 115.895C81.9351 115.765 81.8101 115.65 81.6501 115.55C81.5001 115.45 81.2951 115.34 81.0351 115.22C80.6751 115.06 80.4151 114.885 80.2551 114.695C80.0951 114.505 80.0151 114.295 80.0151 114.065C80.0151 113.725 80.1151 113.475 80.3151 113.315C80.4151 113.235 80.5801 113.155 80.8101 113.075C81.0501 112.985 81.1951 112.93 81.2451 112.91C81.7251 112.74 82.1251 112.58 82.4451 112.43C82.7751 112.27 83.0601 112.06 83.3001 111.8C83.5501 111.54 83.6751 111.225 83.6751 110.855C83.6751 110.645 83.6151 110.485 83.4951 110.375C83.3751 110.265 83.1751 110.21 82.8951 110.21C82.6451 110.21 82.4301 110.245 82.2501 110.315C82.0801 110.375 81.8851 110.47 81.6651 110.6C81.4851 110.69 81.3401 110.76 81.2301 110.81C81.1301 110.85 81.0151 110.87 80.8851 110.87C80.4951 110.87 80.3001 110.68 80.3001 110.3C80.3001 110.05 80.4101 109.815 80.6301 109.595C80.8601 109.375 81.1851 109.2 81.6051 109.07C82.0251 108.94 82.5151 108.875 83.0751 108.875C83.7851 108.875 84.3101 109.045 84.6501 109.385C85.0001 109.725 85.1751 110.17 85.1751 110.72C85.1751 111.56 84.8551 112.245 84.2151 112.775C83.5851 113.305 82.7701 113.715 81.7701 114.005C82.4701 114.235 82.9951 114.545 83.3451 114.935C84.2351 114.305 85.3201 113.595 86.6001 112.805C86.7301 112.725 86.8451 112.685 86.9451 112.685ZM82.3251 117.32C80.8051 118.6 80.0451 119.765 80.0451 120.815C80.0451 121.215 80.1851 121.415 80.4651 121.415C80.7051 121.415 80.9701 121.19 81.2601 120.74C81.5601 120.3 81.8101 119.765 82.0101 119.135C82.2201 118.505 82.3251 117.95 82.3251 117.47V117.32ZM88.1421 116.075C87.5221 116.075 87.0271 115.85 86.6571 115.4C86.2871 114.95 86.1021 114.36 86.1021 113.63C86.1021 112.83 86.2871 112.075 86.6571 111.365C87.0271 110.645 87.5171 110.07 88.1271 109.64C88.7471 109.2 89.4021 108.98 90.0921 108.98C90.3121 108.98 90.4571 109.025 90.5271 109.115C90.6071 109.195 90.6721 109.345 90.7221 109.565C90.9321 109.525 91.1521 109.505 91.3821 109.505C91.8721 109.505 92.1171 109.68 92.1171 110.03C92.1171 110.24 92.0421 110.74 91.8921 111.53C91.6621 112.68 91.5471 113.48 91.5471 113.93C91.5471 114.08 91.5821 114.2 91.6521 114.29C91.7321 114.38 91.8321 114.425 91.9521 114.425C92.1421 114.425 92.3721 114.305 92.6421 114.065C92.9121 113.815 93.2771 113.415 93.7371 112.865C93.8571 112.725 93.9921 112.655 94.1421 112.655C94.2721 112.655 94.3721 112.715 94.4421 112.835C94.5221 112.955 94.5621 113.12 94.5621 113.33C94.5621 113.73 94.4671 114.04 94.2771 114.26C93.8671 114.77 93.4321 115.2 92.9721 115.55C92.5121 115.9 92.0671 116.075 91.6371 116.075C91.3071 116.075 91.0021 115.965 90.7221 115.745C90.4521 115.515 90.2471 115.205 90.1071 114.815C89.5871 115.655 88.9321 116.075 88.1421 116.075ZM88.6821 114.56C88.9021 114.56 89.1121 114.43 89.3121 114.17C89.5121 113.91 89.6571 113.565 89.7471 113.135L90.3021 110.375C89.8821 110.385 89.4921 110.545 89.1321 110.855C88.7821 111.155 88.5021 111.555 88.2921 112.055C88.0821 112.555 87.9771 113.085 87.9771 113.645C87.9771 113.955 88.0371 114.185 88.1571 114.335C88.2871 114.485 88.4621 114.56 88.6821 114.56ZM105.148 112.655C105.278 112.655 105.378 112.715 105.448 112.835C105.528 112.955 105.568 113.12 105.568 113.33C105.568 113.74 105.473 114.055 105.283 114.275C104.823 114.815 104.373 115.25 103.933 115.58C103.503 115.91 103.028 116.075 102.508 116.075C101.978 116.075 101.598 115.875 101.368 115.475C101.138 115.075 101.023 114.495 101.023 113.735C101.023 113.075 101.103 112.25 101.263 111.26H101.233C100.983 111.69 100.748 112.175 100.528 112.715C100.308 113.255 100.063 113.895 99.793 114.635L99.538 115.31C99.428 115.61 99.298 115.815 99.148 115.925C98.998 116.025 98.818 116.075 98.608 116.075C98.388 116.075 98.228 116.015 98.128 115.895C98.028 115.775 97.938 115.585 97.858 115.325C97.768 115.025 97.693 114.615 97.633 114.095C97.573 113.565 97.543 113.03 97.543 112.49C97.543 112.16 97.558 111.845 97.588 111.545H97.558C97.308 112.515 97.063 113.315 96.823 113.945C96.583 114.565 96.258 115.075 95.848 115.475C95.438 115.865 94.918 116.06 94.288 116.06C93.758 116.06 93.348 115.875 93.058 115.505C92.778 115.135 92.638 114.67 92.638 114.11C92.638 113.61 92.753 113.195 92.983 112.865C93.213 112.525 93.538 112.355 93.958 112.355C94.358 112.355 94.558 112.49 94.558 112.76C94.558 112.81 94.553 112.85 94.543 112.88C94.463 113.36 94.423 113.7 94.423 113.9C94.423 114.24 94.498 114.41 94.648 114.41C94.788 114.41 94.928 114.31 95.068 114.11C95.208 113.9 95.403 113.45 95.653 112.76C95.993 111.83 96.313 110.88 96.613 109.91C96.713 109.6 96.858 109.375 97.048 109.235C97.248 109.085 97.513 109.01 97.843 109.01C98.123 109.01 98.353 109.065 98.533 109.175C98.723 109.285 98.818 109.465 98.818 109.715C98.818 111.165 98.853 112.27 98.923 113.03H98.953C99.123 112.46 99.388 111.805 99.748 111.065C100.108 110.325 100.393 109.84 100.603 109.61C100.793 109.41 100.983 109.26 101.173 109.16C101.373 109.05 101.593 108.995 101.833 108.995C102.193 108.995 102.438 109.075 102.568 109.235C102.698 109.385 102.763 109.67 102.763 110.09C102.763 110.32 102.758 110.55 102.748 110.78C102.738 111 102.728 111.205 102.718 111.395C102.678 112.135 102.658 112.685 102.658 113.045C102.658 113.615 102.698 114 102.778 114.2C102.858 114.4 103.008 114.5 103.228 114.5C103.628 114.5 104.133 113.975 104.743 112.925C104.853 112.745 104.988 112.655 105.148 112.655ZM112.009 111.395C112.139 111.395 112.239 111.46 112.309 111.59C112.379 111.72 112.414 111.885 112.414 112.085C112.414 112.565 112.269 112.85 111.979 112.94C111.379 113.15 110.719 113.27 109.999 113.3C109.809 114.14 109.434 114.815 108.874 115.325C108.314 115.825 107.679 116.075 106.969 116.075C106.369 116.075 105.854 115.93 105.424 115.64C105.004 115.35 104.684 114.965 104.464 114.485C104.244 114.005 104.134 113.485 104.134 112.925C104.134 112.165 104.279 111.49 104.569 110.9C104.859 110.3 105.259 109.835 105.769 109.505C106.279 109.165 106.844 108.995 107.464 108.995C108.224 108.995 108.834 109.26 109.294 109.79C109.764 110.31 110.039 110.955 110.119 111.725C110.589 111.695 111.149 111.595 111.799 111.425C111.879 111.405 111.949 111.395 112.009 111.395ZM107.089 114.485C107.409 114.485 107.684 114.355 107.914 114.095C108.154 113.835 108.314 113.46 108.394 112.97C108.084 112.76 107.844 112.485 107.674 112.145C107.514 111.805 107.434 111.445 107.434 111.065C107.434 110.905 107.449 110.745 107.479 110.585H107.404C107.004 110.585 106.669 110.78 106.399 111.17C106.139 111.55 106.009 112.09 106.009 112.79C106.009 113.34 106.114 113.76 106.324 114.05C106.544 114.34 106.799 114.485 107.089 114.485ZM119.106 111.395C119.236 111.395 119.336 111.46 119.406 111.59C119.476 111.72 119.511 111.885 119.511 112.085C119.511 112.335 119.476 112.53 119.406 112.67C119.336 112.8 119.226 112.89 119.076 112.94C118.476 113.15 117.816 113.27 117.096 113.3C116.896 114.13 116.516 114.8 115.956 115.31C115.406 115.82 114.796 116.075 114.126 116.075C113.116 116.075 112.381 115.69 111.921 114.92C111.461 114.15 111.231 113.035 111.231 111.575C111.231 110.285 111.391 108.885 111.711 107.375C112.031 105.855 112.496 104.565 113.106 103.505C113.726 102.435 114.461 101.9 115.311 101.9C115.771 101.9 116.141 102.1 116.421 102.5C116.701 102.89 116.841 103.4 116.841 104.03C116.841 104.85 116.686 105.665 116.376 106.475C116.066 107.285 115.551 108.135 114.831 109.025C115.501 109.075 116.046 109.355 116.466 109.865C116.886 110.365 117.136 110.985 117.216 111.725C117.686 111.695 118.246 111.595 118.896 111.425C118.956 111.405 119.026 111.395 119.106 111.395ZM114.966 103.385C114.766 103.385 114.546 103.685 114.306 104.285C114.076 104.875 113.861 105.68 113.661 106.7C113.461 107.72 113.311 108.835 113.211 110.045C113.871 108.835 114.396 107.77 114.786 106.85C115.186 105.92 115.386 105.095 115.386 104.375C115.386 104.055 115.346 103.81 115.266 103.64C115.196 103.47 115.096 103.385 114.966 103.385ZM114.186 114.485C114.496 114.485 114.771 114.355 115.011 114.095C115.251 113.835 115.411 113.46 115.491 112.97C115.181 112.76 114.941 112.485 114.771 112.145C114.611 111.805 114.531 111.445 114.531 111.065C114.531 110.925 114.551 110.735 114.591 110.495H114.546C114.136 110.495 113.791 110.7 113.511 111.11C113.241 111.51 113.106 112.05 113.106 112.73C113.106 113.3 113.211 113.735 113.421 114.035C113.641 114.335 113.896 114.485 114.186 114.485ZM127.066 112.655C127.196 112.655 127.296 112.715 127.366 112.835C127.446 112.955 127.486 113.12 127.486 113.33C127.486 113.73 127.391 114.04 127.201 114.26C126.871 114.65 126.581 114.965 126.331 115.205C126.091 115.435 125.791 115.64 125.431 115.82C125.081 115.99 124.681 116.075 124.231 116.075C123.641 116.075 123.221 115.845 122.971 115.385C122.721 114.915 122.596 114.21 122.596 113.27C122.596 112.8 122.616 112.345 122.656 111.905H122.626C122.226 113.235 121.731 114.26 121.141 114.98C120.561 115.7 119.896 116.06 119.146 116.06C118.636 116.06 118.236 115.875 117.946 115.505C117.656 115.135 117.511 114.67 117.511 114.11C117.511 113.61 117.626 113.205 117.856 112.895C118.086 112.585 118.411 112.43 118.831 112.43C119.021 112.43 119.161 112.47 119.251 112.55C119.351 112.63 119.391 112.74 119.371 112.88C119.291 113.36 119.251 113.69 119.251 113.87C119.251 114.23 119.341 114.41 119.521 114.41C119.621 114.41 119.731 114.335 119.851 114.185C119.981 114.035 120.196 113.67 120.496 113.09C120.726 112.65 120.961 112.155 121.201 111.605C121.451 111.055 121.656 110.565 121.816 110.135C121.976 109.715 122.161 109.43 122.371 109.28C122.581 109.12 122.881 109.04 123.271 109.04C123.651 109.04 123.931 109.115 124.111 109.265C124.291 109.415 124.381 109.66 124.381 110L124.351 111.11C124.311 111.95 124.291 112.555 124.291 112.925C124.291 113.975 124.506 114.5 124.936 114.5C125.116 114.5 125.291 114.415 125.461 114.245C125.641 114.075 125.916 113.765 126.286 113.315L126.661 112.865C126.781 112.725 126.916 112.655 127.066 112.655ZM133.139 112.655C133.269 112.655 133.369 112.715 133.439 112.835C133.519 112.955 133.559 113.12 133.559 113.33C133.559 113.73 133.464 114.04 133.274 114.26C132.904 114.71 132.379 115.125 131.699 115.505C131.029 115.885 130.309 116.075 129.539 116.075C128.489 116.075 127.674 115.79 127.094 115.22C126.514 114.65 126.224 113.87 126.224 112.88C126.224 112.19 126.369 111.55 126.659 110.96C126.949 110.36 127.349 109.885 127.859 109.535C128.379 109.185 128.964 109.01 129.614 109.01C130.194 109.01 130.659 109.185 131.009 109.535C131.359 109.875 131.534 110.34 131.534 110.93C131.534 111.62 131.284 112.215 130.784 112.715C130.294 113.205 129.459 113.595 128.279 113.885C128.529 114.345 129.004 114.575 129.704 114.575C130.154 114.575 130.664 114.42 131.234 114.11C131.814 113.79 132.314 113.375 132.734 112.865C132.854 112.725 132.989 112.655 133.139 112.655ZM129.359 110.48C128.989 110.48 128.674 110.695 128.414 111.125C128.164 111.555 128.039 112.075 128.039 112.685V112.715C128.629 112.575 129.094 112.365 129.434 112.085C129.774 111.805 129.944 111.48 129.944 111.11C129.944 110.92 129.889 110.77 129.779 110.66C129.679 110.54 129.539 110.48 129.359 110.48ZM140.257 112.655C140.387 112.655 140.487 112.715 140.557 112.835C140.637 112.955 140.677 113.12 140.677 113.33C140.677 113.73 140.582 114.04 140.392 114.26C139.932 114.79 139.457 115.225 138.967 115.565C138.487 115.905 137.937 116.075 137.317 116.075C136.797 116.075 136.432 115.915 136.222 115.595C136.012 115.275 135.907 114.795 135.907 114.155C135.907 113.885 135.932 113.56 135.982 113.18C135.102 113.18 134.492 113.17 134.152 113.15C134.132 113.43 134.122 113.625 134.122 113.735V114.05C134.112 114.67 134.097 115.105 134.077 115.355C134.057 115.605 133.997 115.79 133.897 115.91C133.797 116.02 133.632 116.075 133.402 116.075C133.022 116.075 132.752 115.875 132.592 115.475C132.442 115.075 132.367 114.435 132.367 113.555C132.367 112.255 132.552 111.02 132.922 109.85C133.012 109.56 133.157 109.35 133.357 109.22C133.557 109.08 133.847 109.01 134.227 109.01C134.427 109.01 134.567 109.035 134.647 109.085C134.727 109.135 134.767 109.23 134.767 109.37C134.767 109.53 134.692 109.89 134.542 110.45C134.462 110.78 134.387 111.18 134.317 111.65H136.237C136.337 111.18 136.482 110.58 136.672 109.85C136.752 109.55 136.872 109.335 137.032 109.205C137.202 109.075 137.452 109.01 137.782 109.01C138.012 109.01 138.172 109.04 138.262 109.1C138.352 109.15 138.397 109.25 138.397 109.4C138.397 109.65 138.272 110.335 138.022 111.455C137.742 112.735 137.602 113.525 137.602 113.825C137.602 114.015 137.642 114.165 137.722 114.275C137.802 114.375 137.907 114.425 138.037 114.425C138.237 114.425 138.472 114.305 138.742 114.065C139.022 113.815 139.392 113.415 139.852 112.865C139.972 112.725 140.107 112.655 140.257 112.655ZM147.376 112.655C147.506 112.655 147.606 112.715 147.676 112.835C147.756 112.955 147.796 113.12 147.796 113.33C147.796 113.73 147.701 114.04 147.511 114.26C147.051 114.79 146.576 115.225 146.086 115.565C145.606 115.905 145.056 116.075 144.436 116.075C143.916 116.075 143.551 115.915 143.341 115.595C143.131 115.275 143.026 114.795 143.026 114.155C143.026 113.885 143.051 113.56 143.101 113.18C142.221 113.18 141.611 113.17 141.271 113.15C141.251 113.43 141.241 113.625 141.241 113.735V114.05C141.231 114.67 141.216 115.105 141.196 115.355C141.176 115.605 141.116 115.79 141.016 115.91C140.916 116.02 140.751 116.075 140.521 116.075C140.141 116.075 139.871 115.875 139.711 115.475C139.561 115.075 139.486 114.435 139.486 113.555C139.486 112.255 139.671 111.02 140.041 109.85C140.131 109.56 140.276 109.35 140.476 109.22C140.676 109.08 140.966 109.01 141.346 109.01C141.546 109.01 141.686 109.035 141.766 109.085C141.846 109.135 141.886 109.23 141.886 109.37C141.886 109.53 141.811 109.89 141.661 110.45C141.581 110.78 141.506 111.18 141.436 111.65H143.356C143.456 111.18 143.601 110.58 143.791 109.85C143.871 109.55 143.991 109.335 144.151 109.205C144.321 109.075 144.571 109.01 144.901 109.01C145.131 109.01 145.291 109.04 145.381 109.1C145.471 109.15 145.516 109.25 145.516 109.4C145.516 109.65 145.391 110.335 145.141 111.455C144.861 112.735 144.721 113.525 144.721 113.825C144.721 114.015 144.761 114.165 144.841 114.275C144.921 114.375 145.026 114.425 145.156 114.425C145.356 114.425 145.591 114.305 145.861 114.065C146.141 113.815 146.511 113.415 146.971 112.865C147.091 112.725 147.226 112.655 147.376 112.655ZM155.515 112.655C155.645 112.655 155.745 112.715 155.815 112.835C155.895 112.955 155.935 113.12 155.935 113.33C155.935 113.73 155.84 114.04 155.65 114.26C155.13 114.87 154.63 115.325 154.15 115.625C153.67 115.925 153.195 116.075 152.725 116.075C152.315 116.075 152 115.93 151.78 115.64C151.56 115.35 151.45 114.935 151.45 114.395C151.45 114.105 151.48 113.79 151.54 113.45H151.51C150.58 115.2 149.395 116.075 147.955 116.075C147.335 116.075 146.83 115.895 146.44 115.535C146.06 115.175 145.87 114.7 145.87 114.11C145.87 113.59 145.985 113.18 146.215 112.88C146.455 112.58 146.78 112.43 147.19 112.43C147.55 112.43 147.73 112.575 147.73 112.865C147.73 112.905 147.72 112.975 147.7 113.075C147.68 113.235 147.67 113.355 147.67 113.435C147.67 113.755 147.74 114.02 147.88 114.23C148.02 114.44 148.21 114.545 148.45 114.545C148.76 114.545 149.075 114.45 149.395 114.26C149.715 114.06 150.03 113.78 150.34 113.42H150.145C149.545 113.42 149.065 113.23 148.705 112.85C148.355 112.47 148.18 111.96 148.18 111.32C148.18 110.58 148.395 110.01 148.825 109.61C149.255 109.2 149.855 108.995 150.625 108.995C151.165 108.995 151.72 109.08 152.29 109.25C152.4 109.1 152.63 109.025 152.98 109.025C153.18 109.025 153.335 109.075 153.445 109.175C153.565 109.265 153.615 109.39 153.595 109.55C153.575 109.8 153.485 110.245 153.325 110.885C153.175 111.525 153.06 112.075 152.98 112.535C152.9 112.995 152.86 113.425 152.86 113.825C152.86 114.015 152.895 114.165 152.965 114.275C153.045 114.375 153.155 114.425 153.295 114.425C153.485 114.425 153.715 114.31 153.985 114.08C154.255 113.85 154.63 113.445 155.11 112.865C155.22 112.725 155.355 112.655 155.515 112.655ZM151.135 112.265C151.475 111.675 151.745 111.045 151.945 110.375C151.585 110.265 151.265 110.21 150.985 110.21C150.585 110.21 150.275 110.305 150.055 110.495C149.835 110.685 149.725 110.955 149.725 111.305C149.725 111.585 149.815 111.82 149.995 112.01C150.185 112.2 150.42 112.295 150.7 112.295C150.83 112.295 150.975 112.285 151.135 112.265Z" fill="white"/>
</svg>
