<svg width="32" height="27" viewBox="0 0 32 27" fill="none" xmlns="http://www.w3.org/2000/svg">
<path d="M15.9638 5.39001C21.2851 5.44222 24.6186 5.11114 25.0688 11.0092H31.5578C31.5578 1.8722 23.5891 0.640625 15.7949 0.640625C8.00004 0.640625 0.0319824 1.8722 0.0319824 11.0092H6.47056C6.96872 4.99873 10.6868 5.33841 15.9638 5.39001Z" fill="#FCBA2E"/>
<path d="M3.25 13.9467C4.83047 13.9467 6.14558 14.0413 6.43796 12.4867C6.47727 12.2754 6.5 12.0358 6.5 11.7588H6.42506H0C0 14.0714 1.45516 13.9467 3.25 13.9467Z" fill="#FCBA2E"/>
<path d="M25.1106 11.7588H25.0498C25.0498 12.0377 25.0738 12.2778 25.1186 12.4867C25.427 13.9203 26.7402 13.8313 28.3152 13.8313C30.1186 13.8313 31.5805 13.9498 31.5805 11.7588H25.1106Z" fill="#FCBA2E"/>
<path d="M21.9405 10.1838V9.26486C21.9405 8.85392 21.4669 8.82812 20.8821 8.82812H19.9269C19.3428 8.82812 18.8692 8.85392 18.8692 9.26486V10.0566V10.6709H12.1124V10.0566V9.26486C12.1124 8.85392 11.6389 8.82812 11.0547 8.82812H10.0989C9.51478 8.82812 9.0412 8.85392 9.0412 9.26486V10.1838V10.986C7.50188 12.5855 2.46503 19.3945 2.28198 20.2188L2.28444 25.7194C2.28444 26.2274 2.69783 26.6408 3.20582 26.6408H27.7758C28.2838 26.6408 28.6972 26.2274 28.6972 25.7194V20.1911C28.516 19.3908 23.4804 12.5849 21.9405 10.9854V10.1838ZM11.7795 20.959C11.2851 20.959 10.8839 20.5585 10.8839 20.0634C10.8839 19.5683 11.2851 19.1678 11.7795 19.1678C12.274 19.1678 12.6751 19.5683 12.6751 20.0634C12.6751 20.5585 12.274 20.959 11.7795 20.959ZM11.7795 17.8877C11.2851 17.8877 10.8839 17.4872 10.8839 16.9921C10.8839 16.497 11.2851 16.0966 11.7795 16.0966C12.274 16.0966 12.6751 16.497 12.6751 16.9921C12.6751 17.4872 12.274 17.8877 11.7795 17.8877ZM11.7795 14.8171C11.2851 14.8171 10.8839 14.4166 10.8839 13.9215C10.8839 13.427 11.2851 13.0259 11.7795 13.0259C12.274 13.0259 12.6751 13.427 12.6751 13.9215C12.6751 14.4166 12.274 14.8171 11.7795 14.8171ZM15.465 20.959C14.9706 20.959 14.5695 20.5585 14.5695 20.0634C14.5695 19.5683 14.9706 19.1678 15.465 19.1678C15.9601 19.1678 16.3606 19.5683 16.3606 20.0634C16.3606 20.5585 15.9601 20.959 15.465 20.959ZM15.465 17.8877C14.9706 17.8877 14.5695 17.4872 14.5695 16.9921C14.5695 16.497 14.9706 16.0966 15.465 16.0966C15.9601 16.0966 16.3606 16.497 16.3606 16.9921C16.3606 17.4872 15.9601 17.8877 15.465 17.8877ZM15.465 14.8171C14.9706 14.8171 14.5695 14.4166 14.5695 13.9215C14.5695 13.427 14.9706 13.0259 15.465 13.0259C15.9601 13.0259 16.3606 13.427 16.3606 13.9215C16.3606 14.4166 15.9601 14.8171 15.465 14.8171ZM19.1505 20.959C18.6554 20.959 18.255 20.5585 18.255 20.0634C18.255 19.5683 18.6554 19.1678 19.1505 19.1678C19.6456 19.1678 20.0461 19.5683 20.0461 20.0634C20.0461 20.5585 19.6456 20.959 19.1505 20.959ZM19.1505 17.8877C18.6554 17.8877 18.255 17.4872 18.255 16.9921C18.255 16.497 18.6554 16.0966 19.1505 16.0966C19.6456 16.0966 20.0461 16.497 20.0461 16.9921C20.0461 17.4872 19.6456 17.8877 19.1505 17.8877ZM19.1505 14.8171C18.6554 14.8171 18.255 14.4166 18.255 13.9215C18.255 13.427 18.6554 13.0259 19.1505 13.0259C19.6456 13.0259 20.0461 13.427 20.0461 13.9215C20.0461 14.4166 19.6456 14.8171 19.1505 14.8171Z" fill="#FCBA2E"/>
</svg>
