<svg width="23" height="27" viewBox="0 0 23 27" fill="none" xmlns="http://www.w3.org/2000/svg">
<path d="M11.1237 13.2047C14.3758 13.2047 17.0124 10.2488 17.0124 6.6024C17.0124 2.95595 16.1467 0 11.1237 0C6.10066 0 5.23486 2.95595 5.23486 6.6024C5.23486 10.2488 7.87145 13.2047 11.1237 13.2047Z" fill="#BCD9FF"/>
<path d="M0.001158 23.2856C0.000155142 23.0633 -0.000847711 23.223 0.001158 23.2856V23.2856Z" fill="#BCD9FF"/>
<path d="M22.2457 23.4593C22.2489 23.3984 22.2468 23.037 22.2457 23.4593V23.4593Z" fill="#BCD9FF"/>
<path d="M22.2333 23.0192C22.1242 16.6671 21.2255 14.8571 14.3482 13.7114C14.3482 13.7114 13.3801 14.8501 11.1237 14.8501C8.86724 14.8501 7.89898 13.7114 7.89898 13.7114C1.09672 14.8446 0.143337 16.6278 0.01798 22.8129C0.00770072 23.3179 0.0029372 23.3444 0.00109863 23.2858C0.00151649 23.3957 0.00201773 23.5989 0.00201773 23.9532C0.00201773 23.9532 1.63934 27 11.1237 27C20.6078 27 22.2453 23.9532 22.2453 23.9532C22.2453 23.7255 22.2455 23.5672 22.2457 23.4595C22.2439 23.4958 22.2402 23.4255 22.2333 23.0192Z" fill="#BCD9FF"/>
</svg>
