<svg width="55" height="55" viewBox="0 0 55 55" fill="none" xmlns="http://www.w3.org/2000/svg">
<path d="M55 27.5C55 42.688 42.688 55 27.5 55C12.312 55 0 42.688 0 27.5C0 12.312 12.312 0 27.5 0C42.688 0 55 12.312 55 27.5Z" fill="url(#paint0_linear)"/>
<path d="M27.5 48.9844C15.6534 48.9844 6.01562 39.3466 6.01562 27.5C6.01562 15.6534 15.6534 6.01562 27.5 6.01562C39.3466 6.01562 48.9844 15.6534 48.9844 27.5C48.9844 39.3466 39.3466 48.9844 27.5 48.9844ZM27.5 9.23828C17.4305 9.23828 9.23828 17.4305 9.23828 27.5C9.23828 37.5695 17.4305 45.7617 27.5 45.7617C37.5695 45.7617 45.7617 37.5695 45.7617 27.5C45.7617 17.4305 37.5695 9.23828 27.5 9.23828Z" fill="white"/>
<path d="M27.5 34.3738C26.61 34.3738 25.8887 33.6525 25.8887 32.7625V28.5525C25.8887 27.6625 26.61 26.9411 27.5 26.9411C29.3975 26.9411 30.9413 25.3974 30.9413 23.4999C30.9413 21.6024 29.3975 20.0586 27.5 20.0586C25.6025 20.0586 24.0587 21.6024 24.0587 23.4999C24.0587 24.3899 23.3374 25.1112 22.4474 25.1112C21.5578 25.1112 20.8361 24.3899 20.8361 23.4999C20.8361 19.8253 23.8254 16.8359 27.5 16.8359C31.1746 16.8359 34.1639 19.8253 34.1639 23.4999C34.1639 26.6189 32.0096 29.244 29.1113 29.9666V32.7625C29.1113 33.6525 28.39 34.3738 27.5 34.3738Z" fill="white"/>
<path d="M29.6052 37.8154C29.6052 38.9782 28.6628 39.9206 27.5 39.9206C26.3372 39.9206 25.3948 38.9782 25.3948 37.8154C25.3948 36.6527 26.3372 35.7102 27.5 35.7102C28.6628 35.7102 29.6052 36.6527 29.6052 37.8154Z" fill="white"/>
<defs>
<linearGradient id="paint0_linear" x1="9.23828" y1="47.2656" x2="48.9844" y2="11.8164" gradientUnits="userSpaceOnUse">
<stop stop-color="#FCBA2E"/>
<stop offset="1" stop-color="#FBD87C"/>
</linearGradient>
</defs>
</svg>
