<svg width="65" height="64" viewBox="0 0 65 64" fill="none" xmlns="http://www.w3.org/2000/svg">
<path d="M62.9002 17.883L33.608 0.305567C33.2753 0.105628 32.8943 0 32.5061 0C32.1179 0 31.737 0.105628 31.4042 0.305567L2.112 17.883C1.64784 18.1587 1.3057 18.6004 1.15477 19.1188C1.00383 19.6371 1.05535 20.1935 1.29892 20.6753L1.51289 21.1139C1.64476 21.3779 1.83001 21.6116 2.05691 21.8003C2.28381 21.9889 2.54742 22.1284 2.83103 22.2099C3.11464 22.2913 3.41208 22.313 3.70451 22.2735C3.99694 22.234 4.27798 22.1343 4.52984 21.9805L5.76015 21.2423L31.4042 5.80454C31.737 5.6046 32.1179 5.49897 32.5061 5.49897C32.8943 5.49897 33.2753 5.6046 33.608 5.80454L59.2521 21.2423L60.4824 21.9805C60.7342 22.1343 61.0153 22.234 61.3077 22.2735C61.6001 22.313 61.8976 22.2913 62.1812 22.2099C62.4648 22.1284 62.7284 21.9889 62.9553 21.8003C63.1822 21.6116 63.3675 21.3779 63.4993 21.1139L63.7133 20.6753C63.9569 20.1935 64.0084 19.6371 63.8575 19.1188C63.7065 18.6004 63.3644 18.1587 62.9002 17.883Z" fill="#BCD9FF"/>
<circle cx="50.6168" cy="54.2274" r="3.94503" fill="#BCD9FF"/>
<rect x="2.27344" y="59.5098" width="60.3121" height="2.6746" fill="#BCD9FF"/>
<path d="M62.4662 24.304C62.893 24.1831 63.2897 23.974 63.6306 23.6902C63.9715 23.4064 64.2491 23.0542 64.4454 22.6564L64.67 22.2178C65.0248 21.494 65.0964 20.6638 64.8708 19.8899C64.6451 19.1161 64.1386 18.4544 63.4504 18.0347L34.1475 0.457276C33.6501 0.15808 33.0805 0 32.5 0C31.9195 0 31.3499 0.15808 30.8524 0.457276L1.54957 18.0347C0.861412 18.4544 0.354858 19.1161 0.129236 19.8899C-0.096385 20.6638 -0.0247989 21.494 0.329958 22.2178L0.554624 22.6564C0.750884 23.0542 1.02845 23.4064 1.36938 23.6902C1.71031 23.974 2.10701 24.1831 2.53382 24.304C2.8221 24.3892 3.12117 24.4325 3.42179 24.4324C3.85773 24.4219 4.28708 24.3236 4.6842 24.1435V57.4155H3.61436C2.76315 57.4155 1.94679 57.7536 1.34489 58.3555C0.742991 58.9574 0.404847 59.7738 0.404847 60.625C0.404847 61.4762 0.742991 62.2926 1.34489 62.8945C1.94679 63.4964 2.76315 63.8345 3.61436 63.8345H61.3856C62.2369 63.8345 63.0532 63.4964 63.6551 62.8945C64.257 62.2926 64.5952 61.4762 64.5952 60.625C64.5952 59.7738 64.257 58.9574 63.6551 58.3555C63.0532 57.7536 62.2369 57.4155 61.3856 57.4155H60.3158V24.1542C60.993 24.4542 61.7539 24.5072 62.4662 24.304ZM61.3856 59.5552C61.6694 59.5552 61.9415 59.6679 62.1421 59.8685C62.3428 60.0691 62.4555 60.3413 62.4555 60.625C62.4555 60.9087 62.3428 61.1808 62.1421 61.3815C61.9415 61.5821 61.6694 61.6948 61.3856 61.6948H3.61436C3.33062 61.6948 3.05851 61.5821 2.85787 61.3815C2.65724 61.1808 2.54452 60.9087 2.54452 60.625C2.54452 60.3413 2.65724 60.0691 2.85787 59.8685C3.05851 59.6679 3.33062 59.5552 3.61436 59.5552H61.3856ZM51.7571 48.9637V34.9489C51.7571 34.6651 51.6444 34.393 51.4437 34.1924C51.2431 33.9917 50.971 33.879 50.6873 33.879C50.3235 33.879 49.9705 33.9111 49.6174 33.9325V28.5298C49.6174 27.8274 49.479 27.1318 49.2102 26.4828C48.9414 25.8338 48.5474 25.2441 48.0507 24.7474C47.554 24.2507 46.9643 23.8566 46.3153 23.5878C45.6663 23.319 44.9707 23.1806 44.2682 23.1806H31.4302C30.0115 23.1806 28.6509 23.7442 27.6477 24.7474C26.6445 25.7506 26.081 27.1111 26.081 28.5298V36.0187C26.0784 36.8691 25.7395 37.684 25.1381 38.2854C24.5368 38.8867 23.7219 39.2257 22.8715 39.2282H21.8016C20.3829 39.2282 19.0223 39.7918 18.0192 40.795C17.016 41.7981 16.4524 43.1587 16.4524 44.5774V46.7171H15.3826C15.0988 46.7171 14.8267 46.8298 14.6261 47.0304C14.4255 47.2311 14.3127 47.5032 14.3127 47.7869V50.9964H12.1731C11.3226 50.999 10.5078 51.3379 9.9064 51.9393C9.30505 52.5406 8.96609 53.3555 8.96355 54.206V57.4155H6.82388V22.9239L31.9437 7.79637C32.1121 7.69657 32.3042 7.64391 32.5 7.64391C32.6958 7.64391 32.8879 7.69657 33.0563 7.79637L58.1761 22.9239V57.4155H54.9345C55.6458 56.4965 56.0332 55.3681 56.0364 54.206C56.0333 52.9737 55.6062 51.7801 54.827 50.8255C54.0477 49.8709 52.9638 49.2135 51.7571 48.9637ZM46.44 57.4155H32.5V54.206C32.5053 49.5692 34.2793 45.1091 37.4601 41.7355C40.6409 38.3618 44.989 36.3287 49.6174 36.0508V48.9637C48.4107 49.2135 47.3268 49.8709 46.5475 50.8255C45.7683 51.7801 45.3412 52.9737 45.3381 54.206C45.3413 55.3681 45.7287 56.4965 46.44 57.4155ZM22.8715 50.9964H20.7318V47.7869C20.7318 47.5032 20.6191 47.2311 20.4184 47.0304C20.2178 46.8298 19.9457 46.7171 19.6619 46.7171H18.5921V44.5774C18.5946 43.727 18.9336 42.9121 19.535 42.3107C20.1363 41.7094 20.9512 41.3704 21.8016 41.3679H22.8715C23.5739 41.3679 24.2695 41.2295 24.9185 40.9607C25.5675 40.6919 26.1572 40.2979 26.6539 39.8012C27.1506 39.3044 27.5446 38.7147 27.8135 38.0658C28.0823 37.4168 28.2206 36.7212 28.2206 36.0187V28.5298C28.2232 27.6794 28.5621 26.8645 29.1635 26.2632C29.7648 25.6618 30.5797 25.3229 31.4302 25.3203H44.2682C45.1187 25.3229 45.9335 25.6618 46.5349 26.2632C47.1362 26.8645 47.4752 27.6794 47.4777 28.5298V34.1572C42.7096 34.9244 38.3698 37.3624 35.2339 41.0352C32.098 44.7081 30.3706 49.3765 30.3603 54.206V57.4155H26.081V54.206C26.0784 53.3555 25.7395 52.5406 25.1381 51.9393C24.5368 51.3379 23.7219 50.999 22.8715 50.9964ZM22.8715 53.1361C23.1552 53.1361 23.4273 53.2488 23.6279 53.4495C23.8286 53.6501 23.9413 53.9222 23.9413 54.206V57.4155H11.1032V54.206C11.1032 53.9222 11.2159 53.6501 11.4166 53.4495C11.6172 53.2488 11.8893 53.1361 12.1731 53.1361H22.8715ZM16.4524 50.9964V48.8568H18.5921V50.9964H16.4524ZM50.6873 50.9964C51.322 50.9964 51.9426 51.1847 52.4704 51.5373C52.9982 51.89 53.4095 52.3913 53.6525 52.9777C53.8954 53.5642 53.9589 54.2095 53.8351 54.8321C53.7113 55.4547 53.4056 56.0266 52.9567 56.4754C52.5079 56.9243 51.936 57.23 51.3134 57.3538C50.6908 57.4776 50.0455 57.4141 49.459 57.1712C48.8726 56.9282 48.3713 56.5169 48.0186 55.9891C47.666 55.4613 47.4777 54.8407 47.4777 54.206C47.4803 53.3555 47.8192 52.5406 48.4206 51.9393C49.0219 51.3379 49.8368 50.999 50.6873 50.9964ZM34.1582 5.96694C33.6587 5.66257 33.085 5.50156 32.5 5.50156C31.915 5.50156 31.3413 5.66257 30.8417 5.96694L3.97811 22.1429C3.85025 22.2181 3.70839 22.2663 3.56121 22.2847C3.41404 22.3031 3.26466 22.2913 3.12224 22.2499C2.98114 22.2101 2.85006 22.1409 2.73759 22.0469C2.62512 21.9528 2.53381 21.8361 2.46963 21.7043L2.24497 21.2656C2.12802 21.023 2.10484 20.7457 2.17987 20.487C2.25491 20.2284 2.42287 20.0065 2.65151 19.8641L31.9544 2.2867C32.1195 2.18878 32.308 2.13711 32.5 2.13711C32.692 2.13711 32.8805 2.18878 33.0456 2.2867L62.3485 19.8641C62.5771 20.0065 62.7451 20.2284 62.8201 20.487C62.8952 20.7457 62.872 21.023 62.755 21.2656L62.5304 21.7043C62.4662 21.8361 62.3749 21.9528 62.2624 22.0469C62.1499 22.1409 62.0189 22.2101 61.8778 22.2499C61.7353 22.2913 61.586 22.3031 61.4388 22.2847C61.2916 22.2663 61.1497 22.2181 61.0219 22.1429L34.1582 5.96694Z" fill="#757575" fill-opacity="0.78"/>
</svg>
