<svg width="22" height="18" viewBox="0 0 22 18" fill="none" xmlns="http://www.w3.org/2000/svg">
<path d="M11.0519 3.28804C14.7359 3.32418 17.0437 3.09497 17.3554 7.17823H21.8478C21.8478 0.852628 16.331 0 10.935 0C5.53857 0 0.0222168 0.852628 0.0222168 7.17823H4.47969C4.82457 3.01715 7.39861 3.25232 11.0519 3.28804Z" fill="white"/>
<path d="M2.25 9.21201C3.34417 9.21201 4.25463 9.2775 4.45705 8.20119C4.48427 8.0549 4.5 7.88905 4.5 7.69727H4.44812H0C0 9.29833 1.00742 9.21201 2.25 9.21201Z" fill="white"/>
<path d="M17.3844 7.69727H17.3423C17.3423 7.89033 17.3589 8.0566 17.3899 8.20119C17.6034 9.19372 18.5126 9.13206 19.6029 9.13206C20.8515 9.13206 21.8635 9.21413 21.8635 7.69727H17.3844Z" fill="white"/>
<path d="M15.1895 6.6065V5.97032C15.1895 5.68583 14.8617 5.66797 14.4568 5.66797H13.7956C13.3912 5.66797 13.0633 5.68583 13.0633 5.97032V6.51847V6.94372H8.38554V6.51847V5.97032C8.38554 5.68583 8.05767 5.66797 7.65326 5.66797H6.99157C6.58716 5.66797 6.25929 5.68583 6.25929 5.97032V6.6065V7.16187C5.19361 8.26923 1.70656 12.9831 1.57983 13.5538L1.58154 17.3619C1.58154 17.7136 1.86773 17.9998 2.21941 17.9998H19.2294C19.5811 17.9998 19.8673 17.7136 19.8673 17.3619V13.5347C19.7419 12.9806 16.2557 8.2688 15.1895 7.16145V6.6065ZM8.15506 14.0662C7.81273 14.0662 7.53504 13.789 7.53504 13.4462C7.53504 13.1035 7.81273 12.8262 8.15506 12.8262C8.49738 12.8262 8.77507 13.1035 8.77507 13.4462C8.77507 13.789 8.49738 14.0662 8.15506 14.0662ZM8.15506 11.94C7.81273 11.94 7.53504 11.6627 7.53504 11.32C7.53504 10.9772 7.81273 10.7 8.15506 10.7C8.49738 10.7 8.77507 10.9772 8.77507 11.32C8.77507 11.6627 8.49738 11.94 8.15506 11.94ZM8.15506 9.81416C7.81273 9.81416 7.53504 9.5369 7.53504 9.19415C7.53504 8.85182 7.81273 8.57413 8.15506 8.57413C8.49738 8.57413 8.77507 8.85182 8.77507 9.19415C8.77507 9.5369 8.49738 9.81416 8.15506 9.81416ZM10.7066 14.0662C10.3642 14.0662 10.0865 13.789 10.0865 13.4462C10.0865 13.1035 10.3642 12.8262 10.7066 12.8262C11.0493 12.8262 11.3266 13.1035 11.3266 13.4462C11.3266 13.789 11.0493 14.0662 10.7066 14.0662ZM10.7066 11.94C10.3642 11.94 10.0865 11.6627 10.0865 11.32C10.0865 10.9772 10.3642 10.7 10.7066 10.7C11.0493 10.7 11.3266 10.9772 11.3266 11.32C11.3266 11.6627 11.0493 11.94 10.7066 11.94ZM10.7066 9.81416C10.3642 9.81416 10.0865 9.5369 10.0865 9.19415C10.0865 8.85182 10.3642 8.57413 10.7066 8.57413C11.0493 8.57413 11.3266 8.85182 11.3266 9.19415C11.3266 9.5369 11.0493 9.81416 10.7066 9.81416ZM13.2581 14.0662C12.9153 14.0662 12.638 13.789 12.638 13.4462C12.638 13.1035 12.9153 12.8262 13.2581 12.8262C13.6008 12.8262 13.8781 13.1035 13.8781 13.4462C13.8781 13.789 13.6008 14.0662 13.2581 14.0662ZM13.2581 11.94C12.9153 11.94 12.638 11.6627 12.638 11.32C12.638 10.9772 12.9153 10.7 13.2581 10.7C13.6008 10.7 13.8781 10.9772 13.8781 11.32C13.8781 11.6627 13.6008 11.94 13.2581 11.94ZM13.2581 9.81416C12.9153 9.81416 12.638 9.5369 12.638 9.19415C12.638 8.85182 12.9153 8.57413 13.2581 8.57413C13.6008 8.57413 13.8781 8.85182 13.8781 9.19415C13.8781 9.5369 13.6008 9.81416 13.2581 9.81416Z" fill="white"/>
</svg>
