<svg width="22" height="18" viewBox="0 0 22 18" fill="none" xmlns="http://www.w3.org/2000/svg">
<path d="M11.0518 3.28804C14.7358 3.32418 17.0436 3.09497 17.3553 7.17823H21.8476C21.8476 0.852628 16.3309 0 10.9349 0C5.53844 0 0.0220947 0.852628 0.0220947 7.17823H4.47957C4.82445 3.01715 7.39849 3.25232 11.0518 3.28804Z" fill="white"/>
<path d="M2.25 9.21176C3.34417 9.21176 4.25463 9.27725 4.45705 8.20094C4.48427 8.05466 4.5 7.88881 4.5 7.69702H4.44812H0C0 9.29809 1.00742 9.21176 2.25 9.21176Z" fill="white"/>
<path d="M17.3843 7.69702H17.3422C17.3422 7.89009 17.3587 8.05636 17.3898 8.20094C17.6033 9.19348 18.5125 9.13182 19.6028 9.13182C20.8513 9.13182 21.8634 9.21389 21.8634 7.69702H17.3843Z" fill="white"/>
<path d="M15.1895 6.60668V5.97051C15.1895 5.68601 14.8617 5.66815 14.4568 5.66815H13.7956C13.3912 5.66815 13.0633 5.68601 13.0633 5.97051V6.51865V6.9439H8.38554V6.51865V5.97051C8.38554 5.68601 8.05767 5.66815 7.65326 5.66815H6.99157C6.58716 5.66815 6.25929 5.68601 6.25929 5.97051V6.60668V7.16206C5.19361 8.26941 1.70656 12.9833 1.57983 13.554L1.58154 17.3621C1.58154 17.7138 1.86773 18 2.21941 18H19.2294C19.5811 18 19.8673 17.7138 19.8673 17.3621V13.5349C19.7419 12.9808 16.2557 8.26898 15.1895 7.16163V6.60668ZM8.15506 14.0664C7.81273 14.0664 7.53504 13.7892 7.53504 13.4464C7.53504 13.1037 7.81273 12.8264 8.15506 12.8264C8.49738 12.8264 8.77507 13.1037 8.77507 13.4464C8.77507 13.7892 8.49738 14.0664 8.15506 14.0664ZM8.15506 11.9402C7.81273 11.9402 7.53504 11.6629 7.53504 11.3202C7.53504 10.9774 7.81273 10.7001 8.15506 10.7001C8.49738 10.7001 8.77507 10.9774 8.77507 11.3202C8.77507 11.6629 8.49738 11.9402 8.15506 11.9402ZM8.15506 9.81434C7.81273 9.81434 7.53504 9.53708 7.53504 9.19433C7.53504 8.852 7.81273 8.57431 8.15506 8.57431C8.49738 8.57431 8.77507 8.852 8.77507 9.19433C8.77507 9.53708 8.49738 9.81434 8.15506 9.81434ZM10.7066 14.0664C10.3642 14.0664 10.0865 13.7892 10.0865 13.4464C10.0865 13.1037 10.3642 12.8264 10.7066 12.8264C11.0493 12.8264 11.3266 13.1037 11.3266 13.4464C11.3266 13.7892 11.0493 14.0664 10.7066 14.0664ZM10.7066 11.9402C10.3642 11.9402 10.0865 11.6629 10.0865 11.3202C10.0865 10.9774 10.3642 10.7001 10.7066 10.7001C11.0493 10.7001 11.3266 10.9774 11.3266 11.3202C11.3266 11.6629 11.0493 11.9402 10.7066 11.9402ZM10.7066 9.81434C10.3642 9.81434 10.0865 9.53708 10.0865 9.19433C10.0865 8.852 10.3642 8.57431 10.7066 8.57431C11.0493 8.57431 11.3266 8.852 11.3266 9.19433C11.3266 9.53708 11.0493 9.81434 10.7066 9.81434ZM13.2581 14.0664C12.9153 14.0664 12.638 13.7892 12.638 13.4464C12.638 13.1037 12.9153 12.8264 13.2581 12.8264C13.6008 12.8264 13.8781 13.1037 13.8781 13.4464C13.8781 13.7892 13.6008 14.0664 13.2581 14.0664ZM13.2581 11.9402C12.9153 11.9402 12.638 11.6629 12.638 11.3202C12.638 10.9774 12.9153 10.7001 13.2581 10.7001C13.6008 10.7001 13.8781 10.9774 13.8781 11.3202C13.8781 11.6629 13.6008 11.9402 13.2581 11.9402ZM13.2581 9.81434C12.9153 9.81434 12.638 9.53708 12.638 9.19433C12.638 8.852 12.9153 8.57431 13.2581 8.57431C13.6008 8.57431 13.8781 8.852 13.8781 9.19433C13.8781 9.53708 13.6008 9.81434 13.2581 9.81434Z" fill="white"/>
</svg>
