<svg width="32" height="32" viewBox="0 0 32 32" fill="none" xmlns="http://www.w3.org/2000/svg">
<path d="M16 0.359375C7.17725 0.359375 0 7.31233 0 15.8594C0 24.4064 7.17725 31.3594 16 31.3594C24.8228 31.3594 32 24.4064 32 15.8594C32 7.31233 24.8228 0.359375 16 0.359375ZM23.6094 23.8766C23.3494 24.1285 23.0081 24.2553 22.6667 24.2553C22.3254 24.2553 21.9839 24.1285 21.7241 23.8766L15.0574 17.4185C14.8066 17.177 14.6667 16.8487 14.6667 16.5053V8.10938C14.6667 7.39511 15.2639 6.81779 16 6.81779C16.7361 6.81779 17.3333 7.39511 17.3333 8.10938V15.9705L23.6094 22.0503C24.1306 22.5555 24.1306 23.3717 23.6094 23.8766Z" fill="#FCBA2E"/>
</svg>
