<svg width="43" height="43" viewBox="0 0 43 43" fill="none" xmlns="http://www.w3.org/2000/svg">
<path d="M18.4435 25.8324L25.2965 21.8854L18.4435 17.9385V25.8324Z" fill="#E7A20E"/>
<path d="M21.0676 0.817383C9.43406 0.817383 0 10.2514 0 21.885C0 33.5185 9.43406 42.9525 21.0676 42.9525C32.7011 42.9525 42.1352 33.5185 42.1352 21.885C42.1352 10.2514 32.7011 0.817383 21.0676 0.817383ZM34.2316 21.9065C34.2316 21.9065 34.2316 26.1791 33.6896 28.2394C33.3858 29.3671 32.4967 30.2563 31.369 30.5597C29.3087 31.102 21.0676 31.102 21.0676 31.102C21.0676 31.102 12.848 31.102 10.7662 30.5382C9.63851 30.2347 8.74934 29.3452 8.44555 28.2175C7.90324 26.1791 7.90324 21.885 7.90324 21.885C7.90324 21.885 7.90324 17.6127 8.44555 15.5524C8.74901 14.4247 9.66005 13.5137 10.7662 13.2102C12.8265 12.6679 21.0676 12.6679 21.0676 12.6679C21.0676 12.6679 29.3087 12.6679 31.369 13.2317C32.4967 13.5352 33.3858 14.4247 33.6896 15.5524C34.2535 17.6127 34.2316 21.9065 34.2316 21.9065Z" fill="#E7A20E"/>
</svg>
