<svg width="28" height="29" viewBox="0 0 28 29" fill="none" xmlns="http://www.w3.org/2000/svg">
<path d="M12.1965 17.0825L16.7283 14.4724L12.1965 11.8623V17.0825Z" fill="#DEECFF"/>
<path d="M13.9318 0.540527C6.23865 0.540527 0 6.77918 0 14.4723C0 22.1655 6.23865 28.4041 13.9318 28.4041C21.6249 28.4041 27.8636 22.1655 27.8636 14.4723C27.8636 6.77918 21.6249 0.540527 13.9318 0.540527ZM22.637 14.4866C22.637 14.4866 22.637 17.312 22.2786 18.6744C22.0777 19.4202 21.4897 20.0082 20.744 20.2088C19.3815 20.5675 13.9318 20.5675 13.9318 20.5675C13.9318 20.5675 8.49627 20.5675 7.11959 20.1946C6.37385 19.9939 5.78585 19.4057 5.58496 18.66C5.22633 17.312 5.22633 14.4723 5.22633 14.4723C5.22633 14.4723 5.22633 11.6471 5.58496 10.2847C5.78564 9.53892 6.3881 8.93646 7.11959 8.73578C8.48203 8.37716 13.9318 8.37716 13.9318 8.37716C13.9318 8.37716 19.3815 8.37716 20.744 8.75003C21.4897 8.95071 22.0777 9.53892 22.2786 10.2847C22.6515 11.6471 22.637 14.4866 22.637 14.4866Z" fill="#DEECFF"/>
</svg>
