<svg width="164" height="90" viewBox="0 0 164 90" fill="none" xmlns="http://www.w3.org/2000/svg">
<path d="M16.2233 6.69835C16.3328 6.29888 16.0978 5.88626 15.6983 5.77672C15.2988 5.66719 14.8862 5.90223 14.7767 6.3017L16.2233 6.69835ZM14.7767 6.3017C10.4881 21.9422 12.2182 36.6958 19.013 46.2109C22.4179 50.9789 27.0905 54.4201 32.8793 55.9654C38.6628 57.5092 45.5049 57.1464 53.2378 54.4072L52.7369 52.9933C45.226 55.6539 38.6979 55.9661 33.2662 54.5161C27.8398 53.0676 23.4523 49.8462 20.2337 45.3392C13.7818 36.3042 12.0118 22.0578 16.2233 6.69835L14.7767 6.3017Z" fill="#AAAAAA"/>
<path d="M62.602 52.96C64.4033 52.96 65.78 53.436 66.732 54.388C67.6933 55.3307 68.174 56.698 68.174 58.49C68.174 59.7127 67.9687 60.828 67.558 61.836C67.1473 62.8347 66.578 63.6233 65.85 64.202C65.122 64.7807 64.3007 65.07 63.386 65.07C62.91 65.07 62.4853 65.0233 62.112 64.93C61.748 64.8367 61.4027 64.706 61.076 64.538C60.7493 64.3607 60.3247 64.104 59.802 63.768C59.5687 64.244 59.2327 64.6033 58.794 64.846C58.3553 65.0887 57.8327 65.21 57.226 65.21C56.5353 65.21 56.0267 65.0607 55.7 64.762C55.3827 64.454 55.224 64.034 55.224 63.502C55.224 62.9327 55.42 62.4707 55.812 62.116C56.204 61.752 56.7313 61.57 57.394 61.57C57.7673 61.57 58.164 61.6307 58.584 61.752C58.7053 60.604 58.864 59.666 59.06 58.938C59.2653 58.2007 59.5547 57.454 59.928 56.698C60.0587 56.4273 60.2127 56.2313 60.39 56.11C60.5673 55.9887 60.7867 55.928 61.048 55.928C61.3 55.928 61.496 55.9793 61.636 56.082C61.776 56.1847 61.846 56.32 61.846 56.488C61.846 56.6093 61.8133 56.7307 61.748 56.852C61.5333 57.244 61.3233 57.7667 61.118 58.42C60.922 59.0733 60.768 59.708 60.656 60.324L60.572 60.8C60.46 61.4627 60.3527 62.0087 60.25 62.438C60.7447 62.7087 61.2347 62.9233 61.72 63.082C62.2147 63.2313 62.658 63.306 63.05 63.306C63.666 63.306 64.2027 63.1053 64.66 62.704C65.1267 62.3027 65.486 61.738 65.738 61.01C65.99 60.282 66.116 59.4327 66.116 58.462C66.116 57.146 65.822 56.166 65.234 55.522C64.646 54.878 63.7547 54.556 62.56 54.556C61.8133 54.556 61.062 54.668 60.306 54.892C59.5593 55.116 58.8733 55.4287 58.248 55.83C58.108 55.914 57.982 55.956 57.87 55.956C57.7113 55.956 57.5807 55.8953 57.478 55.774C57.3847 55.6433 57.338 55.4707 57.338 55.256C57.338 55.032 57.3753 54.85 57.45 54.71C57.5247 54.57 57.6507 54.4347 57.828 54.304C58.4253 53.8933 59.1533 53.5667 60.012 53.324C60.88 53.0813 61.7433 52.96 62.602 52.96ZM57.31 63.922C57.59 63.922 57.814 63.8567 57.982 63.726C58.1593 63.586 58.2947 63.3573 58.388 63.04C58.0147 62.9 57.688 62.83 57.408 62.83C57.1747 62.83 56.9927 62.8907 56.862 63.012C56.7407 63.1333 56.68 63.2733 56.68 63.432C56.68 63.7587 56.89 63.922 57.31 63.922ZM70.8634 57.552C70.4714 57.552 70.1774 57.4633 69.9814 57.286C69.7854 57.0993 69.6874 56.8427 69.6874 56.516C69.6874 56.1893 69.8134 55.9187 70.0654 55.704C70.3268 55.48 70.6488 55.368 71.0314 55.368C71.3768 55.368 71.6568 55.452 71.8714 55.62C72.0861 55.788 72.1934 56.026 72.1934 56.334C72.1934 56.7073 72.0721 57.006 71.8294 57.23C71.5868 57.4447 71.2648 57.552 70.8634 57.552ZM70.7514 65.07C70.1448 65.07 69.7014 64.8553 69.4214 64.426C69.1508 63.9967 69.0154 63.4273 69.0154 62.718C69.0154 62.298 69.0668 61.7613 69.1694 61.108C69.2814 60.4453 69.4214 59.8293 69.5894 59.26C69.6734 58.9613 69.7854 58.756 69.9254 58.644C70.0654 58.532 70.2894 58.476 70.5974 58.476C71.0734 58.476 71.3114 58.6347 71.3114 58.952C71.3114 59.1853 71.2228 59.7267 71.0454 60.576C70.8214 61.6027 70.7094 62.298 70.7094 62.662C70.7094 62.942 70.7468 63.1567 70.8214 63.306C70.8961 63.4553 71.0221 63.53 71.1994 63.53C71.3674 63.53 71.5774 63.4133 71.8294 63.18C72.0814 62.9467 72.4174 62.578 72.8374 62.074C72.9494 61.9433 73.0754 61.878 73.2154 61.878C73.3368 61.878 73.4301 61.934 73.4954 62.046C73.5701 62.158 73.6074 62.312 73.6074 62.508C73.6074 62.8813 73.5188 63.1707 73.3414 63.376C72.4174 64.5053 71.5541 65.07 70.7514 65.07ZM78.7533 61.906C78.8746 61.906 78.968 61.962 79.0333 62.074C79.108 62.186 79.1453 62.3353 79.1453 62.522C79.1453 62.9233 79.0146 63.1987 78.7533 63.348C77.6893 63.964 76.7466 64.552 75.9253 65.112C75.9906 65.3733 76.0233 65.6813 76.0233 66.036C76.0233 66.8947 75.86 67.7347 75.5333 68.556C75.216 69.3867 74.7866 70.0633 74.2453 70.586C73.7133 71.1087 73.1486 71.37 72.5513 71.37C72.038 71.37 71.6413 71.2253 71.3613 70.936C71.0813 70.656 70.9413 70.2547 70.9413 69.732C70.9413 68.9387 71.1793 68.1687 71.6553 67.422C72.1313 66.6753 72.9666 65.8353 74.1613 64.902C74.0773 64.7807 73.9606 64.6733 73.8113 64.58C73.6713 64.4867 73.48 64.384 73.2373 64.272C72.9013 64.1227 72.6586 63.9593 72.5093 63.782C72.36 63.6047 72.2853 63.4087 72.2853 63.194C72.2853 62.8767 72.3786 62.6433 72.5653 62.494C72.6586 62.4193 72.8126 62.3447 73.0273 62.27C73.2513 62.186 73.3866 62.1347 73.4333 62.116C73.8813 61.9573 74.2546 61.808 74.5533 61.668C74.8613 61.5187 75.1273 61.3227 75.3513 61.08C75.5846 60.8373 75.7013 60.5433 75.7013 60.198C75.7013 60.002 75.6453 59.8527 75.5333 59.75C75.4213 59.6473 75.2346 59.596 74.9733 59.596C74.74 59.596 74.5393 59.6287 74.3713 59.694C74.2126 59.75 74.0306 59.8387 73.8253 59.96C73.6573 60.044 73.522 60.1093 73.4193 60.156C73.326 60.1933 73.2186 60.212 73.0973 60.212C72.7333 60.212 72.5513 60.0347 72.5513 59.68C72.5513 59.4467 72.654 59.2273 72.8593 59.022C73.074 58.8167 73.3773 58.6533 73.7693 58.532C74.1613 58.4107 74.6186 58.35 75.1413 58.35C75.804 58.35 76.294 58.5087 76.6113 58.826C76.938 59.1433 77.1013 59.5587 77.1013 60.072C77.1013 60.856 76.8026 61.4953 76.2053 61.99C75.6173 62.4847 74.8566 62.8673 73.9233 63.138C74.5766 63.3527 75.0666 63.642 75.3933 64.006C76.224 63.418 77.2366 62.7553 78.4313 62.018C78.5526 61.9433 78.66 61.906 78.7533 61.906ZM74.4413 66.232C73.0226 67.4267 72.3133 68.514 72.3133 69.494C72.3133 69.8673 72.444 70.054 72.7053 70.054C72.9293 70.054 73.1766 69.844 73.4473 69.424C73.7273 69.0133 73.9606 68.514 74.1473 67.926C74.3433 67.338 74.4413 66.82 74.4413 66.372V66.232ZM85.5269 61.878C85.6482 61.878 85.7416 61.934 85.8069 62.046C85.8816 62.158 85.9189 62.312 85.9189 62.508C85.9189 62.8813 85.8302 63.1707 85.6529 63.376C85.2236 63.8707 84.7802 64.2767 84.3229 64.594C83.8749 64.9113 83.3616 65.07 82.7829 65.07C82.2976 65.07 81.9569 64.9207 81.7609 64.622C81.5649 64.3233 81.4669 63.8753 81.4669 63.278C81.4669 63.026 81.4902 62.7227 81.5369 62.368C80.7156 62.368 80.1462 62.3587 79.8289 62.34C79.8102 62.6013 79.8009 62.7833 79.8009 62.886V63.18C79.7916 63.7587 79.7776 64.1647 79.7589 64.398C79.7402 64.6313 79.6842 64.804 79.5909 64.916C79.4976 65.0187 79.3436 65.07 79.1289 65.07C78.7742 65.07 78.5222 64.8833 78.3729 64.51C78.2329 64.1367 78.1629 63.5393 78.1629 62.718C78.1629 61.5047 78.3356 60.352 78.6809 59.26C78.7649 58.9893 78.9002 58.7933 79.0869 58.672C79.2736 58.5413 79.5442 58.476 79.8989 58.476C80.0856 58.476 80.2162 58.4993 80.2909 58.546C80.3656 58.5927 80.4029 58.6813 80.4029 58.812C80.4029 58.9613 80.3329 59.2973 80.1929 59.82C80.1182 60.128 80.0482 60.5013 79.9829 60.94H81.7749C81.8682 60.5013 82.0036 59.9413 82.1809 59.26C82.2556 58.98 82.3676 58.7793 82.5169 58.658C82.6756 58.5367 82.9089 58.476 83.2169 58.476C83.4316 58.476 83.5809 58.504 83.6649 58.56C83.7489 58.6067 83.7909 58.7 83.7909 58.84C83.7909 59.0733 83.6742 59.7127 83.4409 60.758C83.1796 61.9527 83.0489 62.69 83.0489 62.97C83.0489 63.1473 83.0862 63.2873 83.1609 63.39C83.2356 63.4833 83.3336 63.53 83.4549 63.53C83.6416 63.53 83.8609 63.418 84.1129 63.194C84.3742 62.9607 84.7196 62.5873 85.1489 62.074C85.2609 61.9433 85.3869 61.878 85.5269 61.878ZM86.5014 65.07C85.9228 65.07 85.4608 64.86 85.1154 64.44C84.7701 64.02 84.5974 63.4693 84.5974 62.788C84.5974 62.0413 84.7701 61.3367 85.1154 60.674C85.4608 60.002 85.9181 59.4653 86.4874 59.064C87.0661 58.6533 87.6774 58.448 88.3214 58.448C88.5268 58.448 88.6621 58.49 88.7274 58.574C88.8021 58.6487 88.8628 58.7887 88.9094 58.994C89.1054 58.9567 89.3108 58.938 89.5254 58.938C89.9828 58.938 90.2114 59.1013 90.2114 59.428C90.2114 59.624 90.1414 60.0907 90.0014 60.828C89.7868 61.9013 89.6794 62.648 89.6794 63.068C89.6794 63.208 89.7121 63.32 89.7774 63.404C89.8521 63.488 89.9454 63.53 90.0574 63.53C90.2348 63.53 90.4494 63.418 90.7014 63.194C90.9534 62.9607 91.2941 62.5873 91.7234 62.074C91.8354 61.9433 91.9614 61.878 92.1014 61.878C92.2228 61.878 92.3161 61.934 92.3814 62.046C92.4561 62.158 92.4934 62.312 92.4934 62.508C92.4934 62.8813 92.4048 63.1707 92.2274 63.376C91.8448 63.852 91.4388 64.2533 91.0094 64.58C90.5801 64.9067 90.1648 65.07 89.7634 65.07C89.4554 65.07 89.1708 64.9673 88.9094 64.762C88.6574 64.5473 88.4661 64.258 88.3354 63.894C87.8501 64.678 87.2388 65.07 86.5014 65.07ZM87.0054 63.656C87.2108 63.656 87.4068 63.5347 87.5934 63.292C87.7801 63.0493 87.9154 62.7273 87.9994 62.326L88.5174 59.75C88.1254 59.7593 87.7614 59.9087 87.4254 60.198C87.0988 60.478 86.8374 60.8513 86.6414 61.318C86.4454 61.7847 86.3474 62.2793 86.3474 62.802C86.3474 63.0913 86.4034 63.306 86.5154 63.446C86.6368 63.586 86.8001 63.656 87.0054 63.656ZM92.7836 65.07C92.3636 65.07 92.0183 64.8787 91.7476 64.496C91.4863 64.104 91.3556 63.6187 91.3556 63.04C91.3556 62.34 91.4023 61.7007 91.4956 61.122C91.5889 60.534 91.7429 59.9133 91.9576 59.26C92.0509 58.98 92.1816 58.7793 92.3496 58.658C92.5176 58.5367 92.7836 58.476 93.1476 58.476C93.3529 58.476 93.4929 58.5087 93.5676 58.574C93.6516 58.6393 93.6936 58.7373 93.6936 58.868C93.6936 58.9427 93.6423 59.1947 93.5396 59.624C93.4463 59.9693 93.3716 60.282 93.3156 60.562C93.1289 61.542 93.0356 62.1953 93.0356 62.522C93.0356 62.718 93.0589 62.858 93.1056 62.942C93.1523 63.0167 93.2269 63.054 93.3296 63.054C93.4696 63.054 93.6423 62.914 93.8476 62.634C94.0623 62.354 94.2863 61.9293 94.5196 61.36C94.7623 60.7907 94.9956 60.0907 95.2196 59.26C95.2943 58.98 95.4063 58.7793 95.5556 58.658C95.7143 58.5367 95.9476 58.476 96.2556 58.476C96.4703 58.476 96.6196 58.504 96.7036 58.56C96.7876 58.6067 96.8296 58.7 96.8296 58.84C96.8296 59.0733 96.7129 59.7127 96.4796 60.758C96.2183 61.9527 96.0876 62.69 96.0876 62.97C96.0876 63.1473 96.1249 63.2873 96.1996 63.39C96.2743 63.4833 96.3723 63.53 96.4936 63.53C96.6803 63.53 96.8996 63.418 97.1516 63.194C97.4129 62.9607 97.7583 62.5873 98.1876 62.074C98.2996 61.9433 98.4256 61.878 98.5656 61.878C98.6869 61.878 98.7803 61.934 98.8456 62.046C98.9203 62.158 98.9576 62.312 98.9576 62.508C98.9576 62.8813 98.8689 63.1707 98.6916 63.376C98.2903 63.8707 97.8563 64.2767 97.3896 64.594C96.9323 64.9113 96.4096 65.07 95.8216 65.07C95.3736 65.07 95.0423 64.8973 94.8276 64.552C94.6223 64.2067 94.5196 63.7213 94.5196 63.096C94.3609 63.7307 94.1229 64.2207 93.8056 64.566C93.4883 64.902 93.1476 65.07 92.7836 65.07ZM94.2956 57.552C93.8663 57.552 93.4883 57.4633 93.1616 57.286C92.8349 57.1087 92.5829 56.8753 92.4056 56.586C92.2283 56.2967 92.1396 55.9887 92.1396 55.662C92.1396 55.4287 92.2143 55.242 92.3636 55.102C92.5129 54.9527 92.7043 54.878 92.9376 54.878C93.1803 54.878 93.3576 54.934 93.4696 55.046C93.5816 55.158 93.6703 55.3493 93.7356 55.62C93.8289 56.012 94.0856 56.208 94.5056 56.208C94.9443 56.208 95.3223 56.0867 95.6396 55.844C95.9569 55.592 96.1856 55.2887 96.3256 54.934C96.4003 54.7473 96.4843 54.6167 96.5776 54.542C96.6709 54.458 96.7923 54.416 96.9416 54.416C97.0816 54.416 97.1983 54.472 97.2916 54.584C97.3943 54.6867 97.4456 54.8173 97.4456 54.976L97.4176 55.144C97.3243 55.5267 97.1516 55.9 96.8996 56.264C96.6476 56.628 96.3023 56.936 95.8636 57.188C95.4249 57.4307 94.9023 57.552 94.2956 57.552ZM98.8164 65.07C98.4617 65.07 98.2097 64.8833 98.0604 64.51C97.9204 64.1367 97.8504 63.5393 97.8504 62.718C97.8504 61.5047 98.0231 60.352 98.3684 59.26C98.4524 58.9893 98.5877 58.7933 98.7744 58.672C98.9704 58.5413 99.2411 58.476 99.5864 58.476C99.7731 58.476 99.9037 58.4993 99.9784 58.546C100.053 58.5927 100.09 58.6813 100.09 58.812C100.09 58.9613 100.02 59.2973 99.8804 59.82C99.7871 60.1933 99.7124 60.52 99.6564 60.8C99.6004 61.0707 99.5537 61.4113 99.5164 61.822C99.7684 61.094 100.067 60.478 100.412 59.974C100.767 59.47 101.126 59.0967 101.49 58.854C101.864 58.602 102.214 58.476 102.54 58.476C102.867 58.476 103.096 58.5507 103.226 58.7C103.366 58.8493 103.436 59.078 103.436 59.386C103.436 59.6847 103.348 60.226 103.17 61.01C103.096 61.346 103.044 61.598 103.016 61.766C103.483 60.618 104.001 59.7827 104.57 59.26C105.14 58.7373 105.672 58.476 106.166 58.476C106.773 58.476 107.076 58.7793 107.076 59.386C107.076 59.75 106.974 60.408 106.768 61.36C106.591 62.172 106.502 62.7087 106.502 62.97C106.502 63.3433 106.638 63.53 106.908 63.53C107.095 63.53 107.314 63.418 107.566 63.194C107.828 62.9607 108.173 62.5873 108.602 62.074C108.714 61.9433 108.84 61.878 108.98 61.878C109.102 61.878 109.195 61.934 109.26 62.046C109.335 62.158 109.372 62.312 109.372 62.508C109.372 62.8813 109.284 63.1707 109.106 63.376C108.705 63.8707 108.271 64.2767 107.804 64.594C107.347 64.9113 106.824 65.07 106.236 65.07C105.76 65.07 105.401 64.9347 105.158 64.664C104.916 64.384 104.794 63.9827 104.794 63.46C104.794 63.1987 104.86 62.732 104.99 62.06C105.112 61.472 105.172 61.066 105.172 60.842C105.172 60.6927 105.121 60.618 105.018 60.618C104.897 60.618 104.724 60.7767 104.5 61.094C104.276 61.402 104.052 61.8127 103.828 62.326C103.604 62.8393 103.422 63.3807 103.282 63.95C103.18 64.398 103.058 64.6967 102.918 64.846C102.788 64.9953 102.573 65.07 102.274 65.07C101.966 65.07 101.733 64.9253 101.574 64.636C101.425 64.3373 101.35 63.978 101.35 63.558C101.35 63.2033 101.397 62.69 101.49 62.018C101.565 61.4207 101.602 61.0287 101.602 60.842C101.602 60.6927 101.551 60.618 101.448 60.618C101.308 60.618 101.131 60.786 100.916 61.122C100.702 61.458 100.492 61.8873 100.286 62.41C100.09 62.9327 99.9317 63.446 99.8104 63.95C99.7077 64.3887 99.5864 64.6873 99.4464 64.846C99.3157 64.9953 99.1057 65.07 98.8164 65.07ZM114.484 61.878C114.606 61.878 114.699 61.934 114.764 62.046C114.839 62.158 114.876 62.312 114.876 62.508C114.876 62.8813 114.788 63.1707 114.61 63.376C114.265 63.796 113.775 64.1833 113.14 64.538C112.515 64.8927 111.843 65.07 111.124 65.07C110.144 65.07 109.384 64.804 108.842 64.272C108.301 63.74 108.03 63.012 108.03 62.088C108.03 61.444 108.166 60.8467 108.436 60.296C108.707 59.736 109.08 59.2927 109.556 58.966C110.042 58.6393 110.588 58.476 111.194 58.476C111.736 58.476 112.17 58.6393 112.496 58.966C112.823 59.2833 112.986 59.7173 112.986 60.268C112.986 60.912 112.753 61.4673 112.286 61.934C111.829 62.3913 111.05 62.7553 109.948 63.026C110.182 63.4553 110.625 63.67 111.278 63.67C111.698 63.67 112.174 63.5253 112.706 63.236C113.248 62.9373 113.714 62.55 114.106 62.074C114.218 61.9433 114.344 61.878 114.484 61.878ZM110.956 59.848C110.611 59.848 110.317 60.0487 110.074 60.45C109.841 60.8513 109.724 61.3367 109.724 61.906V61.934C110.275 61.8033 110.709 61.6073 111.026 61.346C111.344 61.0847 111.502 60.7813 111.502 60.436C111.502 60.2587 111.451 60.1187 111.348 60.016C111.255 59.904 111.124 59.848 110.956 59.848ZM116.41 65.07C115.496 65.07 114.782 64.8133 114.268 64.3C113.764 63.7773 113.512 63.0913 113.512 62.242C113.512 61.486 113.662 60.8233 113.96 60.254C114.259 59.6847 114.646 59.246 115.122 58.938C115.598 58.63 116.098 58.476 116.62 58.476C117.134 58.476 117.53 58.63 117.81 58.938C118.1 59.2367 118.244 59.624 118.244 60.1C118.244 60.492 118.156 60.8233 117.978 61.094C117.81 61.3647 117.586 61.5 117.306 61.5C117.129 61.5 116.984 61.458 116.872 61.374C116.77 61.29 116.718 61.1733 116.718 61.024C116.718 60.9587 116.728 60.884 116.746 60.8C116.765 60.716 116.779 60.6553 116.788 60.618C116.835 60.478 116.858 60.3473 116.858 60.226C116.858 60.1047 116.826 60.0113 116.76 59.946C116.704 59.8807 116.62 59.848 116.508 59.848C116.294 59.848 116.093 59.946 115.906 60.142C115.72 60.3287 115.57 60.5853 115.458 60.912C115.346 61.2387 115.29 61.598 115.29 61.99C115.29 63.0727 115.762 63.614 116.704 63.614C117.087 63.614 117.498 63.488 117.936 63.236C118.384 62.9747 118.823 62.5873 119.252 62.074C119.364 61.9433 119.49 61.878 119.63 61.878C119.752 61.878 119.845 61.934 119.91 62.046C119.985 62.158 120.022 62.312 120.022 62.508C120.022 62.8627 119.934 63.152 119.756 63.376C119.318 63.9173 118.79 64.3373 118.174 64.636C117.568 64.9253 116.98 65.07 116.41 65.07ZM126.871 61.878C126.992 61.878 127.085 61.934 127.151 62.046C127.225 62.158 127.263 62.312 127.263 62.508C127.263 62.8813 127.174 63.1707 126.997 63.376C126.567 63.8707 126.124 64.2767 125.667 64.594C125.219 64.9113 124.705 65.07 124.127 65.07C123.744 65.07 123.408 64.958 123.119 64.734C122.689 64.958 122.204 65.07 121.663 65.07C120.813 65.07 120.146 64.832 119.661 64.356C119.185 63.8707 118.947 63.2407 118.947 62.466C118.947 61.906 118.989 61.374 119.073 60.87C119.157 60.366 119.287 59.8293 119.465 59.26C119.549 58.9893 119.684 58.7933 119.871 58.672C120.067 58.5413 120.347 58.476 120.711 58.476C121.131 58.476 121.341 58.588 121.341 58.812C121.341 58.9053 121.271 59.2413 121.131 59.82L121.033 60.24L120.837 61.08C121.089 60.828 121.387 60.6227 121.733 60.464C122.087 60.296 122.447 60.212 122.811 60.212C123.38 60.212 123.828 60.3987 124.155 60.772C124.491 61.1453 124.659 61.6213 124.659 62.2C124.659 62.648 124.551 63.0867 124.337 63.516C124.383 63.5253 124.449 63.53 124.533 63.53C124.841 63.53 125.135 63.418 125.415 63.194C125.695 62.97 126.054 62.5967 126.493 62.074C126.605 61.9433 126.731 61.878 126.871 61.878ZM121.733 63.586C122.106 63.586 122.395 63.4833 122.601 63.278C122.806 63.0727 122.909 62.788 122.909 62.424C122.909 61.9293 122.643 61.682 122.111 61.682C121.803 61.682 121.527 61.7707 121.285 61.948C121.051 62.1253 120.86 62.326 120.711 62.55C120.748 62.886 120.846 63.1427 121.005 63.32C121.163 63.4973 121.406 63.586 121.733 63.586ZM137.206 63.936C136.786 64.2253 136.114 64.6453 135.19 65.196C135.069 65.756 134.952 66.2413 134.84 66.652C134.607 67.492 134.262 68.136 133.804 68.584C133.347 69.032 132.824 69.256 132.236 69.256C131.844 69.256 131.518 69.1253 131.256 68.864C131.004 68.6027 130.878 68.276 130.878 67.884C130.878 67.548 130.958 67.226 131.116 66.918C131.284 66.6193 131.583 66.2833 132.012 65.91C132.451 65.5367 133.067 65.112 133.86 64.636V64.608C133.59 64.5613 133.375 64.4073 133.216 64.146C133.067 63.8753 132.992 63.5253 132.992 63.096C132.843 63.7027 132.61 64.1833 132.292 64.538C131.984 64.8927 131.639 65.07 131.256 65.07C130.846 65.07 130.505 64.8787 130.234 64.496C129.964 64.1133 129.828 63.628 129.828 63.04C129.828 62.3493 129.875 61.7147 129.968 61.136C130.062 60.548 130.216 59.9227 130.43 59.26C130.524 58.9707 130.654 58.77 130.822 58.658C131 58.5367 131.266 58.476 131.62 58.476C131.816 58.476 131.956 58.5087 132.04 58.574C132.124 58.63 132.166 58.728 132.166 58.868C132.166 58.9427 132.115 59.1947 132.012 59.624C131.919 59.9693 131.844 60.282 131.788 60.562C131.602 61.5513 131.508 62.2047 131.508 62.522C131.508 62.7087 131.532 62.844 131.578 62.928C131.625 63.012 131.7 63.054 131.802 63.054C132.054 63.054 132.358 62.6993 132.712 61.99C133.067 61.2807 133.394 60.3707 133.692 59.26C133.767 58.9707 133.884 58.77 134.042 58.658C134.201 58.5367 134.43 58.476 134.728 58.476C134.943 58.476 135.092 58.504 135.176 58.56C135.26 58.6067 135.302 58.7 135.302 58.84C135.302 59.064 135.186 59.68 134.952 60.688C134.85 61.108 134.756 61.5233 134.672 61.934C134.588 62.3447 134.546 62.6387 134.546 62.816C134.546 62.9933 134.57 63.1193 134.616 63.194C134.663 63.2593 134.733 63.292 134.826 63.292C134.864 63.292 134.906 63.2873 134.952 63.278C134.999 63.2687 135.046 63.264 135.092 63.264C135.158 63.264 135.204 63.2967 135.232 63.362C135.27 63.4273 135.284 63.558 135.274 63.754C135.872 63.3807 136.413 63.012 136.898 62.648C137.001 62.5733 137.108 62.536 137.22 62.536C137.342 62.536 137.435 62.592 137.5 62.704C137.575 62.816 137.612 62.9653 137.612 63.152C137.612 63.348 137.584 63.502 137.528 63.614C137.472 63.7167 137.365 63.824 137.206 63.936ZM132.53 67.94C132.773 67.94 133.006 67.7627 133.23 67.408C133.454 67.0533 133.608 66.582 133.692 65.994C132.722 66.5727 132.236 67.1187 132.236 67.632C132.236 67.8373 132.334 67.94 132.53 67.94ZM138.526 57.552C138.134 57.552 137.84 57.4633 137.644 57.286C137.448 57.0993 137.35 56.8427 137.35 56.516C137.35 56.1893 137.476 55.9187 137.728 55.704C137.989 55.48 138.311 55.368 138.694 55.368C139.039 55.368 139.319 55.452 139.534 55.62C139.748 55.788 139.856 56.026 139.856 56.334C139.856 56.7073 139.734 57.006 139.492 57.23C139.249 57.4447 138.927 57.552 138.526 57.552ZM138.414 65.07C137.807 65.07 137.364 64.8553 137.084 64.426C136.813 63.9967 136.678 63.4273 136.678 62.718C136.678 62.298 136.729 61.7613 136.832 61.108C136.944 60.4453 137.084 59.8293 137.252 59.26C137.336 58.9613 137.448 58.756 137.588 58.644C137.728 58.532 137.952 58.476 138.26 58.476C138.736 58.476 138.974 58.6347 138.974 58.952C138.974 59.1853 138.885 59.7267 138.708 60.576C138.484 61.6027 138.372 62.298 138.372 62.662C138.372 62.942 138.409 63.1567 138.484 63.306C138.558 63.4553 138.684 63.53 138.862 63.53C139.03 63.53 139.24 63.4133 139.492 63.18C139.744 62.9467 140.08 62.578 140.5 62.074C140.612 61.9433 140.738 61.878 140.878 61.878C140.999 61.878 141.092 61.934 141.158 62.046C141.232 62.158 141.27 62.312 141.27 62.508C141.27 62.8813 141.181 63.1707 141.004 63.376C140.08 64.5053 139.216 65.07 138.414 65.07ZM147.529 61.878C147.65 61.878 147.744 61.934 147.809 62.046C147.884 62.158 147.921 62.312 147.921 62.508C147.921 62.8813 147.832 63.1707 147.655 63.376C147.226 63.8707 146.782 64.2767 146.325 64.594C145.877 64.9113 145.364 65.07 144.785 65.07C144.3 65.07 143.959 64.9207 143.763 64.622C143.567 64.3233 143.469 63.8753 143.469 63.278C143.469 63.026 143.492 62.7227 143.539 62.368C142.718 62.368 142.148 62.3587 141.831 62.34C141.812 62.6013 141.803 62.7833 141.803 62.886V63.18C141.794 63.7587 141.78 64.1647 141.761 64.398C141.742 64.6313 141.686 64.804 141.593 64.916C141.5 65.0187 141.346 65.07 141.131 65.07C140.776 65.07 140.524 64.8833 140.375 64.51C140.235 64.1367 140.165 63.5393 140.165 62.718C140.165 61.5047 140.338 60.352 140.683 59.26C140.767 58.9893 140.902 58.7933 141.089 58.672C141.276 58.5413 141.546 58.476 141.901 58.476C142.088 58.476 142.218 58.4993 142.293 58.546C142.368 58.5927 142.405 58.6813 142.405 58.812C142.405 58.9613 142.335 59.2973 142.195 59.82C142.12 60.128 142.05 60.5013 141.985 60.94H143.777C143.87 60.5013 144.006 59.9413 144.183 59.26C144.258 58.98 144.37 58.7793 144.519 58.658C144.678 58.5367 144.911 58.476 145.219 58.476C145.434 58.476 145.583 58.504 145.667 58.56C145.751 58.6067 145.793 58.7 145.793 58.84C145.793 59.0733 145.676 59.7127 145.443 60.758C145.182 61.9527 145.051 62.69 145.051 62.97C145.051 63.1473 145.088 63.2873 145.163 63.39C145.238 63.4833 145.336 63.53 145.457 63.53C145.644 63.53 145.863 63.418 146.115 63.194C146.376 62.9607 146.722 62.5873 147.151 62.074C147.263 61.9433 147.389 61.878 147.529 61.878ZM153.949 61.906C154.071 61.906 154.164 61.9667 154.229 62.088C154.304 62.2 154.341 62.3447 154.341 62.522C154.341 62.7367 154.309 62.9047 154.243 63.026C154.178 63.1473 154.075 63.2547 153.935 63.348L151.247 65.154C150.893 67.086 150.426 68.6027 149.847 69.704C149.278 70.8147 148.55 71.37 147.663 71.37C147.187 71.37 146.8 71.2207 146.501 70.922C146.203 70.6327 146.053 70.25 146.053 69.774C146.053 69.3353 146.151 68.8873 146.347 68.43C146.553 67.9727 146.926 67.4453 147.467 66.848C148.018 66.26 148.793 65.5833 149.791 64.818L149.833 64.496C149.899 64.1507 149.973 63.656 150.057 63.012C149.871 63.684 149.609 64.1973 149.273 64.552C148.937 64.8973 148.583 65.07 148.209 65.07C147.789 65.07 147.444 64.8787 147.173 64.496C146.912 64.104 146.781 63.6187 146.781 63.04C146.781 62.34 146.828 61.7007 146.921 61.122C147.015 60.534 147.169 59.9133 147.383 59.26C147.477 58.98 147.607 58.7793 147.775 58.658C147.943 58.5367 148.209 58.476 148.573 58.476C148.779 58.476 148.919 58.5087 148.993 58.574C149.077 58.6393 149.119 58.7373 149.119 58.868C149.119 58.9427 149.068 59.1947 148.965 59.624C148.872 59.9693 148.797 60.282 148.741 60.562C148.667 60.9447 148.601 61.3133 148.545 61.668C148.489 62.0133 148.461 62.298 148.461 62.522C148.461 62.8767 148.559 63.054 148.755 63.054C148.895 63.054 149.068 62.914 149.273 62.634C149.488 62.354 149.712 61.9293 149.945 61.36C150.188 60.7907 150.421 60.0907 150.645 59.26C150.72 58.98 150.832 58.7793 150.981 58.658C151.14 58.5367 151.373 58.476 151.681 58.476C151.896 58.476 152.045 58.504 152.129 58.56C152.213 58.616 152.255 58.7093 152.255 58.84C152.255 59.0733 152.134 59.876 151.891 61.248L151.527 63.502C152.246 62.9607 152.946 62.466 153.627 62.018C153.749 61.9433 153.856 61.906 153.949 61.906ZM147.817 70.012C148.051 70.012 148.312 69.7413 148.601 69.2C148.891 68.6587 149.18 67.758 149.469 66.498C148.751 67.1047 148.228 67.6553 147.901 68.15C147.584 68.654 147.425 69.0927 147.425 69.466C147.425 69.6247 147.453 69.7553 147.509 69.858C147.575 69.9607 147.677 70.012 147.817 70.012ZM56.666 83.07C56.3113 83.07 56.0593 82.8833 55.91 82.51C55.77 82.1367 55.7 81.5393 55.7 80.718C55.7 79.5047 55.8727 78.352 56.218 77.26C56.302 76.9893 56.4373 76.7933 56.624 76.672C56.82 76.5413 57.0907 76.476 57.436 76.476C57.6227 76.476 57.7533 76.4993 57.828 76.546C57.9027 76.5927 57.94 76.6813 57.94 76.812C57.94 76.9613 57.87 77.2973 57.73 77.82C57.6367 78.1933 57.562 78.52 57.506 78.8C57.45 79.08 57.4033 79.4253 57.366 79.836C57.674 79.0333 58.0193 78.38 58.402 77.876C58.7847 77.372 59.158 77.0127 59.522 76.798C59.8953 76.5833 60.236 76.476 60.544 76.476C61.1507 76.476 61.454 76.7793 61.454 77.386C61.454 77.75 61.3513 78.408 61.146 79.36C60.9687 80.172 60.88 80.7087 60.88 80.97C60.88 81.3433 61.0153 81.53 61.286 81.53C61.4727 81.53 61.692 81.418 61.944 81.194C62.2053 80.9607 62.5507 80.5873 62.98 80.074C63.092 79.9433 63.218 79.878 63.358 79.878C63.4793 79.878 63.5727 79.934 63.638 80.046C63.7127 80.158 63.75 80.312 63.75 80.508C63.75 80.8813 63.6613 81.1707 63.484 81.376C63.0827 81.8707 62.6487 82.2767 62.182 82.594C61.7247 82.9113 61.202 83.07 60.614 83.07C60.138 83.07 59.7787 82.9347 59.536 82.664C59.2933 82.384 59.172 81.9827 59.172 81.46C59.172 81.1987 59.2373 80.732 59.368 80.06C59.4893 79.472 59.55 79.066 59.55 78.842C59.55 78.6927 59.4987 78.618 59.396 78.618C59.2747 78.618 59.102 78.7767 58.878 79.094C58.6633 79.402 58.4393 79.8127 58.206 80.326C57.982 80.8393 57.8 81.3807 57.66 81.95C57.5573 82.3887 57.436 82.6873 57.296 82.846C57.1653 82.9953 56.9553 83.07 56.666 83.07ZM70.0933 79.878C70.2146 79.878 70.308 79.934 70.3733 80.046C70.448 80.158 70.4853 80.312 70.4853 80.508C70.4853 80.8813 70.3966 81.1707 70.2193 81.376C69.818 81.8707 69.384 82.2767 68.9173 82.594C68.46 82.9113 67.9373 83.07 67.3493 83.07C66.8546 83.07 66.4533 82.8927 66.1453 82.538C65.6133 82.8833 65.058 83.0607 64.4793 83.07C64.358 84.8713 64.0826 86.374 63.6533 87.578C63.224 88.7913 62.594 89.398 61.7633 89.398C61.2593 89.398 60.886 89.216 60.6433 88.852C60.4006 88.488 60.2793 87.984 60.2793 87.34C60.2793 86.4253 60.4893 85.3567 60.9093 84.134C61.3293 82.9207 61.978 81.5813 62.8553 80.116C62.8553 78.7533 62.846 77.806 62.8273 77.274C62.818 77.0033 62.9253 76.7887 63.1493 76.63C63.3733 76.4713 63.6533 76.392 63.9893 76.392C64.1853 76.392 64.3253 76.434 64.4093 76.518C64.5026 76.5927 64.554 76.7467 64.5633 76.98C64.5633 77.2133 64.568 77.386 64.5773 77.498C64.876 77.1247 65.17 76.8587 65.4593 76.7C65.7486 76.532 66.0566 76.448 66.3833 76.448C66.906 76.448 67.3306 76.658 67.6573 77.078C67.9933 77.498 68.1613 78.0487 68.1613 78.73C68.1613 79.2247 68.082 79.7053 67.9233 80.172C67.7646 80.6387 67.5453 81.0633 67.2653 81.446C67.4613 81.502 67.6246 81.53 67.7553 81.53C68.0633 81.53 68.3573 81.418 68.6373 81.194C68.9173 80.97 69.2766 80.5967 69.7153 80.074C69.8273 79.9433 69.9533 79.878 70.0933 79.878ZM64.5493 81.726C64.8853 81.6513 65.1933 81.4693 65.4733 81.18C65.7626 80.8813 65.9913 80.5173 66.1593 80.088C66.3273 79.6493 66.4113 79.192 66.4113 78.716C66.4113 78.436 66.3553 78.226 66.2433 78.086C66.1313 77.9367 65.982 77.862 65.7953 77.862C65.4593 77.862 65.0533 78.2167 64.5773 78.926C64.568 79.3367 64.5633 79.9387 64.5633 80.732C64.5633 81.1613 64.5586 81.4927 64.5493 81.726ZM61.8753 88.026C62.1273 88.026 62.3373 87.4753 62.5053 86.374C62.6733 85.282 62.7806 83.9193 62.8273 82.286C62.426 83.2193 62.1086 84.1107 61.8753 84.96C61.642 85.8093 61.5253 86.5233 61.5253 87.102C61.5253 87.4007 61.5626 87.6293 61.6373 87.788C61.7026 87.9467 61.782 88.026 61.8753 88.026ZM70.7855 83.07C70.3655 83.07 70.0202 82.8787 69.7495 82.496C69.4882 82.104 69.3575 81.6187 69.3575 81.04C69.3575 80.34 69.4042 79.7007 69.4975 79.122C69.5909 78.534 69.7449 77.9133 69.9595 77.26C70.0529 76.98 70.1835 76.7793 70.3515 76.658C70.5195 76.5367 70.7855 76.476 71.1495 76.476C71.3549 76.476 71.4949 76.5087 71.5695 76.574C71.6535 76.6393 71.6955 76.7373 71.6955 76.868C71.6955 76.9427 71.6442 77.1947 71.5415 77.624C71.4482 77.9693 71.3735 78.282 71.3175 78.562C71.1309 79.542 71.0375 80.1953 71.0375 80.522C71.0375 80.718 71.0609 80.858 71.1075 80.942C71.1542 81.0167 71.2289 81.054 71.3315 81.054C71.4715 81.054 71.6442 80.914 71.8495 80.634C72.0642 80.354 72.2882 79.9293 72.5215 79.36C72.7642 78.7907 72.9975 78.0907 73.2215 77.26C73.2962 76.98 73.4082 76.7793 73.5575 76.658C73.7162 76.5367 73.9495 76.476 74.2575 76.476C74.4722 76.476 74.6215 76.504 74.7055 76.56C74.7895 76.6067 74.8315 76.7 74.8315 76.84C74.8315 77.0733 74.7149 77.7127 74.4815 78.758C74.2202 79.9527 74.0895 80.69 74.0895 80.97C74.0895 81.1473 74.1269 81.2873 74.2015 81.39C74.2762 81.4833 74.3742 81.53 74.4955 81.53C74.6822 81.53 74.9015 81.418 75.1535 81.194C75.4149 80.9607 75.7602 80.5873 76.1895 80.074C76.3015 79.9433 76.4275 79.878 76.5675 79.878C76.6889 79.878 76.7822 79.934 76.8475 80.046C76.9222 80.158 76.9595 80.312 76.9595 80.508C76.9595 80.8813 76.8709 81.1707 76.6935 81.376C76.2922 81.8707 75.8582 82.2767 75.3915 82.594C74.9342 82.9113 74.4115 83.07 73.8235 83.07C73.3755 83.07 73.0442 82.8973 72.8295 82.552C72.6242 82.2067 72.5215 81.7213 72.5215 81.096C72.3629 81.7307 72.1249 82.2207 71.8075 82.566C71.4902 82.902 71.1495 83.07 70.7855 83.07ZM83.2723 78.702C83.3937 78.702 83.487 78.7627 83.5523 78.884C83.6177 79.0053 83.6503 79.1593 83.6503 79.346C83.6503 79.5793 83.6177 79.7613 83.5523 79.892C83.487 80.0133 83.3843 80.0973 83.2443 80.144C82.5723 80.3773 81.863 80.494 81.1163 80.494C80.8737 81.3247 80.491 81.9593 79.9683 82.398C79.455 82.8367 78.8437 83.056 78.1343 83.056C77.369 83.056 76.7717 82.832 76.3423 82.384C75.913 81.9267 75.6983 81.2313 75.6983 80.298C75.6983 79.598 75.8243 78.9727 76.0763 78.422C76.3377 77.862 76.6877 77.428 77.1263 77.12C77.565 76.8027 78.0503 76.644 78.5823 76.644C78.8623 76.644 79.105 76.6953 79.3103 76.798C79.1797 76.5833 79.0303 76.378 78.8623 76.182C78.7037 75.986 78.4937 75.7433 78.2323 75.454C77.8963 75.0807 77.635 74.7773 77.4483 74.544C77.2617 74.3107 77.103 74.054 76.9723 73.774C76.8417 73.4847 76.7763 73.186 76.7763 72.878C76.7763 72.4487 76.8977 72.108 77.1403 71.856C77.383 71.5947 77.6817 71.3987 78.0363 71.268C78.391 71.1373 78.867 71.002 79.4643 70.862C79.763 70.7873 80.0663 70.708 80.3743 70.624C80.6823 70.5307 80.939 70.4327 81.1443 70.33C81.2003 70.302 81.2563 70.288 81.3123 70.288C81.443 70.288 81.5457 70.372 81.6203 70.54C81.7043 70.708 81.7463 70.904 81.7463 71.128C81.7463 71.2867 81.723 71.4313 81.6763 71.562C81.6297 71.6833 81.5643 71.772 81.4803 71.828C81.2377 71.9867 80.9717 72.1033 80.6823 72.178C80.4023 72.2433 80.0617 72.304 79.6603 72.36C79.2217 72.4253 78.8997 72.5 78.6943 72.584C78.4983 72.6587 78.4003 72.808 78.4003 73.032C78.4003 73.1813 78.4703 73.354 78.6103 73.55C78.7597 73.7367 78.9883 73.998 79.2963 74.334C79.707 74.782 80.0523 75.188 80.3323 75.552C80.6123 75.9067 80.855 76.3267 81.0603 76.812C81.275 77.288 81.3823 77.7967 81.3823 78.338C81.3823 78.4967 81.373 78.7253 81.3543 79.024C81.8677 78.996 82.4417 78.898 83.0763 78.73C83.1323 78.7113 83.1977 78.702 83.2723 78.702ZM78.1343 81.586C78.4237 81.586 78.6897 81.4273 78.9323 81.11C79.1843 80.7833 79.385 80.3633 79.5343 79.85C79.357 79.654 79.2217 79.43 79.1283 79.178C79.0443 78.926 79.0023 78.6647 79.0023 78.394C79.0023 78.31 79.0117 78.184 79.0303 78.016L78.7643 78.002C78.531 78.002 78.3117 78.1 78.1063 78.296C77.9103 78.492 77.7517 78.7673 77.6303 79.122C77.509 79.4673 77.4483 79.8593 77.4483 80.298C77.4483 80.7087 77.4997 81.026 77.6023 81.25C77.7143 81.474 77.8917 81.586 78.1343 81.586ZM83.8695 83.07C83.4495 83.07 83.1042 82.8787 82.8335 82.496C82.5722 82.104 82.4415 81.6187 82.4415 81.04C82.4415 80.34 82.4882 79.7007 82.5815 79.122C82.6749 78.534 82.8289 77.9133 83.0435 77.26C83.1369 76.98 83.2675 76.7793 83.4355 76.658C83.6035 76.5367 83.8695 76.476 84.2335 76.476C84.4389 76.476 84.5789 76.5087 84.6535 76.574C84.7375 76.6393 84.7795 76.7373 84.7795 76.868C84.7795 76.9427 84.7282 77.1947 84.6255 77.624C84.5322 77.9693 84.4575 78.282 84.4015 78.562C84.2149 79.542 84.1215 80.1953 84.1215 80.522C84.1215 80.718 84.1449 80.858 84.1915 80.942C84.2382 81.0167 84.3129 81.054 84.4155 81.054C84.5555 81.054 84.7282 80.914 84.9335 80.634C85.1482 80.354 85.3722 79.9293 85.6055 79.36C85.8482 78.7907 86.0815 78.0907 86.3055 77.26C86.3802 76.98 86.4922 76.7793 86.6415 76.658C86.8002 76.5367 87.0335 76.476 87.3415 76.476C87.5562 76.476 87.7055 76.504 87.7895 76.56C87.8735 76.6067 87.9155 76.7 87.9155 76.84C87.9155 77.0733 87.7989 77.7127 87.5655 78.758C87.3042 79.9527 87.1735 80.69 87.1735 80.97C87.1735 81.1473 87.2109 81.2873 87.2855 81.39C87.3602 81.4833 87.4582 81.53 87.5795 81.53C87.7662 81.53 87.9855 81.418 88.2375 81.194C88.4989 80.9607 88.8442 80.5873 89.2735 80.074C89.3855 79.9433 89.5115 79.878 89.6515 79.878C89.7729 79.878 89.8662 79.934 89.9315 80.046C90.0062 80.158 90.0435 80.312 90.0435 80.508C90.0435 80.8813 89.9549 81.1707 89.7775 81.376C89.3762 81.8707 88.9422 82.2767 88.4755 82.594C88.0182 82.9113 87.4955 83.07 86.9075 83.07C86.4595 83.07 86.1282 82.8973 85.9135 82.552C85.7082 82.2067 85.6055 81.7213 85.6055 81.096C85.4469 81.7307 85.2089 82.2207 84.8915 82.566C84.5742 82.902 84.2335 83.07 83.8695 83.07ZM96.3843 79.878C96.5057 79.878 96.599 79.934 96.6643 80.046C96.739 80.158 96.7763 80.312 96.7763 80.508C96.7763 80.8813 96.6877 81.1707 96.5103 81.376C96.109 81.8707 95.675 82.2767 95.2083 82.594C94.751 82.9113 94.2283 83.07 93.6403 83.07C93.1457 83.07 92.7443 82.8927 92.4363 82.538C91.9043 82.8833 91.349 83.0607 90.7703 83.07C90.649 84.8713 90.3737 86.374 89.9443 87.578C89.515 88.7913 88.885 89.398 88.0543 89.398C87.5503 89.398 87.177 89.216 86.9343 88.852C86.6917 88.488 86.5703 87.984 86.5703 87.34C86.5703 86.4253 86.7803 85.3567 87.2003 84.134C87.6203 82.9207 88.269 81.5813 89.1463 80.116C89.1463 78.7533 89.137 77.806 89.1183 77.274C89.109 77.0033 89.2163 76.7887 89.4403 76.63C89.6643 76.4713 89.9443 76.392 90.2803 76.392C90.4763 76.392 90.6163 76.434 90.7003 76.518C90.7937 76.5927 90.845 76.7467 90.8543 76.98C90.8543 77.2133 90.859 77.386 90.8683 77.498C91.167 77.1247 91.461 76.8587 91.7503 76.7C92.0397 76.532 92.3477 76.448 92.6743 76.448C93.197 76.448 93.6217 76.658 93.9483 77.078C94.2843 77.498 94.4523 78.0487 94.4523 78.73C94.4523 79.2247 94.373 79.7053 94.2143 80.172C94.0557 80.6387 93.8363 81.0633 93.5563 81.446C93.7523 81.502 93.9157 81.53 94.0463 81.53C94.3543 81.53 94.6483 81.418 94.9283 81.194C95.2083 80.97 95.5677 80.5967 96.0063 80.074C96.1183 79.9433 96.2443 79.878 96.3843 79.878ZM90.8403 81.726C91.1763 81.6513 91.4843 81.4693 91.7643 81.18C92.0537 80.8813 92.2823 80.5173 92.4503 80.088C92.6183 79.6493 92.7023 79.192 92.7023 78.716C92.7023 78.436 92.6463 78.226 92.5343 78.086C92.4223 77.9367 92.273 77.862 92.0863 77.862C91.7503 77.862 91.3443 78.2167 90.8683 78.926C90.859 79.3367 90.8543 79.9387 90.8543 80.732C90.8543 81.1613 90.8497 81.4927 90.8403 81.726ZM88.1663 88.026C88.4183 88.026 88.6283 87.4753 88.7963 86.374C88.9643 85.282 89.0717 83.9193 89.1183 82.286C88.717 83.2193 88.3997 84.1107 88.1663 84.96C87.933 85.8093 87.8163 86.5233 87.8163 87.102C87.8163 87.4007 87.8537 87.6293 87.9283 87.788C87.9937 87.9467 88.073 88.026 88.1663 88.026ZM97.3706 83.07C96.7919 83.07 96.3299 82.86 95.9846 82.44C95.6392 82.02 95.4666 81.4693 95.4666 80.788C95.4666 80.0413 95.6392 79.3367 95.9846 78.674C96.3299 78.002 96.7872 77.4653 97.3566 77.064C97.9352 76.6533 98.5466 76.448 99.1906 76.448C99.3959 76.448 99.5312 76.49 99.5966 76.574C99.6712 76.6487 99.7319 76.7887 99.7786 76.994C99.9746 76.9567 100.18 76.938 100.395 76.938C100.852 76.938 101.081 77.1013 101.081 77.428C101.081 77.624 101.011 78.0907 100.871 78.828C100.656 79.9013 100.549 80.648 100.549 81.068C100.549 81.208 100.581 81.32 100.647 81.404C100.721 81.488 100.815 81.53 100.927 81.53C101.104 81.53 101.319 81.418 101.571 81.194C101.823 80.9607 102.163 80.5873 102.593 80.074C102.705 79.9433 102.831 79.878 102.971 79.878C103.092 79.878 103.185 79.934 103.251 80.046C103.325 80.158 103.363 80.312 103.363 80.508C103.363 80.8813 103.274 81.1707 103.097 81.376C102.714 81.852 102.308 82.2533 101.879 82.58C101.449 82.9067 101.034 83.07 100.633 83.07C100.325 83.07 100.04 82.9673 99.7786 82.762C99.5266 82.5473 99.3352 82.258 99.2046 81.894C98.7192 82.678 98.1079 83.07 97.3706 83.07ZM97.8746 81.656C98.0799 81.656 98.2759 81.5347 98.4626 81.292C98.6492 81.0493 98.7846 80.7273 98.8686 80.326L99.3866 77.75C98.9946 77.7593 98.6306 77.9087 98.2946 78.198C97.9679 78.478 97.7066 78.8513 97.5106 79.318C97.3146 79.7847 97.2166 80.2793 97.2166 80.802C97.2166 81.0913 97.2726 81.306 97.3846 81.446C97.5059 81.586 97.6692 81.656 97.8746 81.656ZM109.617 79.878C109.738 79.878 109.831 79.934 109.897 80.046C109.971 80.158 110.009 80.312 110.009 80.508C110.009 80.8813 109.92 81.1707 109.743 81.376C109.313 81.8707 108.87 82.2767 108.413 82.594C107.965 82.9113 107.451 83.07 106.873 83.07C106.387 83.07 106.047 82.9207 105.851 82.622C105.655 82.3233 105.557 81.8753 105.557 81.278C105.557 81.026 105.58 80.7227 105.627 80.368C104.805 80.368 104.236 80.3587 103.919 80.34C103.9 80.6013 103.891 80.7833 103.891 80.886V81.18C103.881 81.7587 103.867 82.1647 103.849 82.398C103.83 82.6313 103.774 82.804 103.681 82.916C103.587 83.0187 103.433 83.07 103.219 83.07C102.864 83.07 102.612 82.8833 102.463 82.51C102.323 82.1367 102.253 81.5393 102.253 80.718C102.253 79.5047 102.425 78.352 102.771 77.26C102.855 76.9893 102.99 76.7933 103.177 76.672C103.363 76.5413 103.634 76.476 103.989 76.476C104.175 76.476 104.306 76.4993 104.381 76.546C104.455 76.5927 104.493 76.6813 104.493 76.812C104.493 76.9613 104.423 77.2973 104.283 77.82C104.208 78.128 104.138 78.5013 104.073 78.94H105.865C105.958 78.5013 106.093 77.9413 106.271 77.26C106.345 76.98 106.457 76.7793 106.607 76.658C106.765 76.5367 106.999 76.476 107.307 76.476C107.521 76.476 107.671 76.504 107.755 76.56C107.839 76.6067 107.881 76.7 107.881 76.84C107.881 77.0733 107.764 77.7127 107.531 78.758C107.269 79.9527 107.139 80.69 107.139 80.97C107.139 81.1473 107.176 81.2873 107.251 81.39C107.325 81.4833 107.423 81.53 107.545 81.53C107.731 81.53 107.951 81.418 108.203 81.194C108.464 80.9607 108.809 80.5873 109.239 80.074C109.351 79.9433 109.477 79.878 109.617 79.878ZM116.261 79.878C116.383 79.878 116.476 79.934 116.541 80.046C116.616 80.158 116.653 80.312 116.653 80.508C116.653 80.8813 116.565 81.1707 116.387 81.376C115.958 81.8707 115.515 82.2767 115.057 82.594C114.609 82.9113 114.096 83.07 113.517 83.07C113.032 83.07 112.691 82.9207 112.495 82.622C112.299 82.3233 112.201 81.8753 112.201 81.278C112.201 81.026 112.225 80.7227 112.271 80.368C111.45 80.368 110.881 80.3587 110.563 80.34C110.545 80.6013 110.535 80.7833 110.535 80.886V81.18C110.526 81.7587 110.512 82.1647 110.493 82.398C110.475 82.6313 110.419 82.804 110.325 82.916C110.232 83.0187 110.078 83.07 109.863 83.07C109.509 83.07 109.257 82.8833 109.107 82.51C108.967 82.1367 108.897 81.5393 108.897 80.718C108.897 79.5047 109.07 78.352 109.415 77.26C109.499 76.9893 109.635 76.7933 109.821 76.672C110.008 76.5413 110.279 76.476 110.633 76.476C110.82 76.476 110.951 76.4993 111.025 76.546C111.1 76.5927 111.137 76.6813 111.137 76.812C111.137 76.9613 111.067 77.2973 110.927 77.82C110.853 78.128 110.783 78.5013 110.717 78.94H112.509C112.603 78.5013 112.738 77.9413 112.915 77.26C112.99 76.98 113.102 76.7793 113.251 76.658C113.41 76.5367 113.643 76.476 113.951 76.476C114.166 76.476 114.315 76.504 114.399 76.56C114.483 76.6067 114.525 76.7 114.525 76.84C114.525 77.0733 114.409 77.7127 114.175 78.758C113.914 79.9527 113.783 80.69 113.783 80.97C113.783 81.1473 113.821 81.2873 113.895 81.39C113.97 81.4833 114.068 81.53 114.189 81.53C114.376 81.53 114.595 81.418 114.847 81.194C115.109 80.9607 115.454 80.5873 115.883 80.074C115.995 79.9433 116.121 79.878 116.261 79.878ZM123.858 79.878C123.979 79.878 124.072 79.934 124.138 80.046C124.212 80.158 124.25 80.312 124.25 80.508C124.25 80.8813 124.161 81.1707 123.984 81.376C123.498 81.9453 123.032 82.37 122.584 82.65C122.136 82.93 121.692 83.07 121.254 83.07C120.871 83.07 120.577 82.9347 120.372 82.664C120.166 82.3933 120.064 82.006 120.064 81.502C120.064 81.2313 120.092 80.9373 120.148 80.62H120.12C119.252 82.2533 118.146 83.07 116.802 83.07C116.223 83.07 115.752 82.902 115.388 82.566C115.033 82.23 114.856 81.7867 114.856 81.236C114.856 80.7507 114.963 80.368 115.178 80.088C115.402 79.808 115.705 79.668 116.088 79.668C116.424 79.668 116.592 79.8033 116.592 80.074C116.592 80.1113 116.582 80.1767 116.564 80.27C116.545 80.4193 116.536 80.5313 116.536 80.606C116.536 80.9047 116.601 81.152 116.732 81.348C116.862 81.544 117.04 81.642 117.264 81.642C117.553 81.642 117.847 81.5533 118.146 81.376C118.444 81.1893 118.738 80.928 119.028 80.592H118.846C118.286 80.592 117.838 80.4147 117.502 80.06C117.175 79.7053 117.012 79.2293 117.012 78.632C117.012 77.9413 117.212 77.4093 117.614 77.036C118.015 76.6533 118.575 76.462 119.294 76.462C119.798 76.462 120.316 76.5413 120.848 76.7C120.95 76.56 121.165 76.49 121.492 76.49C121.678 76.49 121.823 76.5367 121.926 76.63C122.038 76.714 122.084 76.8307 122.066 76.98C122.047 77.2133 121.963 77.6287 121.814 78.226C121.674 78.8233 121.566 79.3367 121.492 79.766C121.417 80.1953 121.38 80.5967 121.38 80.97C121.38 81.1473 121.412 81.2873 121.478 81.39C121.552 81.4833 121.655 81.53 121.786 81.53C121.963 81.53 122.178 81.4227 122.43 81.208C122.682 80.9933 123.032 80.6153 123.48 80.074C123.582 79.9433 123.708 79.878 123.858 79.878ZM119.77 79.514C120.087 78.9633 120.339 78.3753 120.526 77.75C120.19 77.6473 119.891 77.596 119.63 77.596C119.256 77.596 118.967 77.6847 118.762 77.862C118.556 78.0393 118.454 78.2913 118.454 78.618C118.454 78.8793 118.538 79.0987 118.706 79.276C118.883 79.4533 119.102 79.542 119.364 79.542C119.485 79.542 119.62 79.5327 119.77 79.514ZM133.372 79.906C133.494 79.906 133.587 79.962 133.652 80.074C133.727 80.186 133.764 80.3353 133.764 80.522C133.764 80.9233 133.634 81.1987 133.372 81.348C132.308 81.964 131.366 82.552 130.544 83.112C130.61 83.3733 130.642 83.6813 130.642 84.036C130.642 84.8947 130.479 85.7347 130.152 86.556C129.835 87.3867 129.406 88.0633 128.864 88.586C128.332 89.1087 127.768 89.37 127.17 89.37C126.657 89.37 126.26 89.2253 125.98 88.936C125.7 88.656 125.56 88.2547 125.56 87.732C125.56 86.9387 125.798 86.1687 126.274 85.422C126.75 84.6753 127.586 83.8353 128.78 82.902C128.696 82.7807 128.58 82.6733 128.43 82.58C128.29 82.4867 128.099 82.384 127.856 82.272C127.52 82.1227 127.278 81.9593 127.128 81.782C126.979 81.6047 126.904 81.4087 126.904 81.194C126.904 80.8767 126.998 80.6433 127.184 80.494C127.278 80.4193 127.432 80.3447 127.646 80.27C127.87 80.186 128.006 80.1347 128.052 80.116C128.5 79.9573 128.874 79.808 129.172 79.668C129.48 79.5187 129.746 79.3227 129.97 79.08C130.204 78.8373 130.32 78.5433 130.32 78.198C130.32 78.002 130.264 77.8527 130.152 77.75C130.04 77.6473 129.854 77.596 129.592 77.596C129.359 77.596 129.158 77.6287 128.99 77.694C128.832 77.75 128.65 77.8387 128.444 77.96C128.276 78.044 128.141 78.1093 128.038 78.156C127.945 78.1933 127.838 78.212 127.716 78.212C127.352 78.212 127.17 78.0347 127.17 77.68C127.17 77.4467 127.273 77.2273 127.478 77.022C127.693 76.8167 127.996 76.6533 128.388 76.532C128.78 76.4107 129.238 76.35 129.76 76.35C130.423 76.35 130.913 76.5087 131.23 76.826C131.557 77.1433 131.72 77.5587 131.72 78.072C131.72 78.856 131.422 79.4953 130.824 79.99C130.236 80.4847 129.476 80.8673 128.542 81.138C129.196 81.3527 129.686 81.642 130.012 82.006C130.843 81.418 131.856 80.7553 133.05 80.018C133.172 79.9433 133.279 79.906 133.372 79.906ZM129.06 84.232C127.642 85.4267 126.932 86.514 126.932 87.494C126.932 87.8673 127.063 88.054 127.324 88.054C127.548 88.054 127.796 87.844 128.066 87.424C128.346 87.0133 128.58 86.514 128.766 85.926C128.962 85.338 129.06 84.82 129.06 84.372V84.232ZM134.49 83.07C133.911 83.07 133.449 82.86 133.104 82.44C132.758 82.02 132.586 81.4693 132.586 80.788C132.586 80.0413 132.758 79.3367 133.104 78.674C133.449 78.002 133.906 77.4653 134.476 77.064C135.054 76.6533 135.666 76.448 136.31 76.448C136.515 76.448 136.65 76.49 136.716 76.574C136.79 76.6487 136.851 76.7887 136.898 76.994C137.094 76.9567 137.299 76.938 137.514 76.938C137.971 76.938 138.2 77.1013 138.2 77.428C138.2 77.624 138.13 78.0907 137.99 78.828C137.775 79.9013 137.668 80.648 137.668 81.068C137.668 81.208 137.7 81.32 137.766 81.404C137.84 81.488 137.934 81.53 138.046 81.53C138.223 81.53 138.438 81.418 138.69 81.194C138.942 80.9607 139.282 80.5873 139.712 80.074C139.824 79.9433 139.95 79.878 140.09 79.878C140.211 79.878 140.304 79.934 140.37 80.046C140.444 80.158 140.482 80.312 140.482 80.508C140.482 80.8813 140.393 81.1707 140.216 81.376C139.833 81.852 139.427 82.2533 138.998 82.58C138.568 82.9067 138.153 83.07 137.752 83.07C137.444 83.07 137.159 82.9673 136.898 82.762C136.646 82.5473 136.454 82.258 136.324 81.894C135.838 82.678 135.227 83.07 134.49 83.07ZM134.994 81.656C135.199 81.656 135.395 81.5347 135.582 81.292C135.768 81.0493 135.904 80.7273 135.988 80.326L136.506 77.75C136.114 77.7593 135.75 77.9087 135.414 78.198C135.087 78.478 134.826 78.8513 134.63 79.318C134.434 79.7847 134.336 80.2793 134.336 80.802C134.336 81.0913 134.392 81.306 134.504 81.446C134.625 81.586 134.788 81.656 134.994 81.656ZM154.067 79.878C154.188 79.878 154.282 79.934 154.347 80.046C154.422 80.158 154.459 80.312 154.459 80.508C154.459 80.8907 154.37 81.1847 154.193 81.39C153.764 81.894 153.344 82.3 152.933 82.608C152.532 82.916 152.088 83.07 151.603 83.07C151.108 83.07 150.754 82.8833 150.539 82.51C150.324 82.1367 150.217 81.5953 150.217 80.886C150.217 80.27 150.292 79.5 150.441 78.576H150.413C150.18 78.9773 149.96 79.43 149.755 79.934C149.55 80.438 149.321 81.0353 149.069 81.726L148.831 82.356C148.728 82.636 148.607 82.8273 148.467 82.93C148.327 83.0233 148.159 83.07 147.963 83.07C147.758 83.07 147.608 83.014 147.515 82.902C147.422 82.79 147.338 82.6127 147.263 82.37C147.179 82.09 147.109 81.7073 147.053 81.222C146.997 80.7273 146.969 80.228 146.969 79.724C146.969 79.416 146.983 79.122 147.011 78.842H146.983C146.75 79.7473 146.521 80.494 146.297 81.082C146.073 81.6607 145.77 82.1367 145.387 82.51C145.004 82.874 144.519 83.056 143.931 83.056C143.436 83.056 143.054 82.8833 142.783 82.538C142.522 82.1927 142.391 81.7587 142.391 81.236C142.391 80.7693 142.498 80.382 142.713 80.074C142.928 79.7567 143.231 79.598 143.623 79.598C143.996 79.598 144.183 79.724 144.183 79.976C144.183 80.0227 144.178 80.06 144.169 80.088C144.094 80.536 144.057 80.8533 144.057 81.04C144.057 81.3573 144.127 81.516 144.267 81.516C144.398 81.516 144.528 81.4227 144.659 81.236C144.79 81.04 144.972 80.62 145.205 79.976C145.522 79.108 145.821 78.2213 146.101 77.316C146.194 77.0267 146.33 76.8167 146.507 76.686C146.694 76.546 146.941 76.476 147.249 76.476C147.51 76.476 147.725 76.5273 147.893 76.63C148.07 76.7327 148.159 76.9007 148.159 77.134C148.159 78.4873 148.192 79.5187 148.257 80.228H148.285C148.444 79.696 148.691 79.0847 149.027 78.394C149.363 77.7033 149.629 77.2507 149.825 77.036C150.002 76.8493 150.18 76.7093 150.357 76.616C150.544 76.5133 150.749 76.462 150.973 76.462C151.309 76.462 151.538 76.5367 151.659 76.686C151.78 76.826 151.841 77.092 151.841 77.484C151.841 77.6987 151.836 77.9133 151.827 78.128C151.818 78.3333 151.808 78.5247 151.799 78.702C151.762 79.3927 151.743 79.906 151.743 80.242C151.743 80.774 151.78 81.1333 151.855 81.32C151.93 81.5067 152.07 81.6 152.275 81.6C152.648 81.6 153.12 81.11 153.689 80.13C153.792 79.962 153.918 79.878 154.067 79.878ZM158.496 76.602C158.655 76.602 158.776 76.6627 158.86 76.784C158.954 76.896 159 77.036 159 77.204C159 77.4187 158.935 77.61 158.804 77.778C158.674 77.946 158.501 78.03 158.286 78.03C158.1 78.03 157.824 78.0207 157.46 78.002C157.096 77.9833 156.816 77.9693 156.62 77.96C155.743 77.904 155.16 77.876 154.87 77.876C154.805 77.876 154.721 77.89 154.618 77.918C154.516 77.946 154.446 77.9647 154.408 77.974C154.184 78.0487 154.016 78.086 153.904 78.086C153.783 78.086 153.68 78.03 153.596 77.918C153.512 77.7967 153.47 77.624 153.47 77.4C153.47 77.1573 153.531 76.9707 153.652 76.84C153.774 76.7 153.956 76.574 154.198 76.462C154.73 76.2287 155.22 75.93 155.668 75.566C156.116 75.202 156.476 74.81 156.746 74.39C157.017 73.97 157.152 73.5687 157.152 73.186C157.152 72.9247 157.087 72.724 156.956 72.584C156.835 72.444 156.653 72.374 156.41 72.374C156.065 72.374 155.79 72.4627 155.584 72.64C155.379 72.8173 155.276 73.06 155.276 73.368C155.276 73.8253 155.048 74.054 154.59 74.054C154.366 74.054 154.194 73.9933 154.072 73.872C153.951 73.7507 153.89 73.5687 153.89 73.326C153.89 72.9433 153.993 72.5887 154.198 72.262C154.404 71.926 154.707 71.66 155.108 71.464C155.519 71.268 156.014 71.17 156.592 71.17C157.292 71.17 157.838 71.3473 158.23 71.702C158.632 72.0567 158.832 72.542 158.832 73.158C158.832 73.7367 158.585 74.3433 158.09 74.978C157.605 75.6033 156.9 76.1587 155.976 76.644L158.496 76.602Z" fill="#AAAAAA"/>
</svg>
